<?xml version="1.0" encoding="UTF-8" standalone="no"?>
<!-- Created with Inkscape (http://www.inkscape.org/) -->

<svg
   width="6.8449087in"
   height="2.5788221in"
   viewBox="0 0 657.0902 247.559"
   version="1.1"
   id="svg1"
   xml:space="preserve"
   xmlns:xlink="http://www.w3.org/1999/xlink"
   xmlns="http://www.w3.org/2000/svg"
   xmlns:svg="http://www.w3.org/2000/svg"><defs
     id="defs1"><linearGradient
       id="linearGradient7"><stop
         style="stop-color:#ff0000;stop-opacity:1;"
         offset="0"
         id="stop7" /><stop
         style="stop-color:#8d0000;stop-opacity:1;"
         offset="1"
         id="stop8" /></linearGradient><linearGradient
       id="linearGradient3"><stop
         style="stop-color:#3d0000;stop-opacity:1;"
         offset="0.06683896"
         id="stop3" /><stop
         style="stop-color:#530000;stop-opacity:1;"
         offset="1"
         id="stop4" /></linearGradient><linearGradient
       id="linearGradient4"><stop
         style="stop-color:#ff3434;stop-opacity:1;"
         offset="0"
         id="stop5" /><stop
         style="stop-color:#870000;stop-opacity:1;"
         offset="1"
         id="stop6" /></linearGradient><filter
       style="color-interpolation-filters:sRGB"
       id="filter1-6"
       x="-0.01150174"
       y="-0.034789919"
       width="1.0230035"
       height="1.0695798"><feGaussianBlur
         stdDeviation="28.349936"
         id="feGaussianBlur1-2" /></filter><filter
       style="color-interpolation-filters:sRGB"
       id="filter8-7"
       x="-0.12791364"
       y="-0.38477918"
       width="1.2558273"
       height="1.7695584"><feGaussianBlur
         stdDeviation="9.547826"
         id="feGaussianBlur8-0" /></filter><filter
       style="color-interpolation-filters:sRGB"
       id="filter9-9"
       x="-0.064216777"
       y="-0.17586282"
       width="1.1284336"
       height="1.3517256"><feGaussianBlur
         stdDeviation="12.185402"
         id="feGaussianBlur9-3" /></filter><linearGradient
       xlink:href="#linearGradient4"
       id="linearGradient37"
       gradientUnits="userSpaceOnUse"
       gradientTransform="matrix(8.663197,0,0,8.663197,-1524.9429,-1977.5685)"
       x1="271.34055"
       y1="859.23749"
       x2="767.70129"
       y2="850.60016" /><linearGradient
       xlink:href="#linearGradient7"
       id="linearGradient38"
       gradientUnits="userSpaceOnUse"
       gradientTransform="matrix(8.663197,0,0,8.663197,-1524.9429,-1977.5685)"
       x1="91.248047"
       y1="653.41602"
       x2="766.64844"
       y2="653.41602" /><radialGradient
       xlink:href="#linearGradient3"
       id="radialGradient38"
       gradientUnits="userSpaceOnUse"
       gradientTransform="matrix(8.663197,0,0,2.1656977,-1524.9429,3057.1273)"
       cx="420.44324"
       cy="744.72577"
       fx="420.44324"
       fy="744.72577"
       r="289.29852" /></defs><g
     id="layer1"
     transform="translate(707.37616,-335.54867)"><rect
       style="fill:#ffffff;fill-opacity:0.401936;stroke:none;stroke-width:21.8749;-inkscape-stroke:none"
       id="rect4"
       width="657.09021"
       height="247.55898"
       x="-707.37616"
       y="335.54868"
       ry="24.40416" /><g
       id="g50"
       transform="matrix(1.9350523,0,0,1.9350523,108.25252,-189.55024)"
       style="fill:#ffffff"><text
         xml:space="preserve"
         style="font-style:normal;font-variant:normal;font-weight:normal;font-stretch:normal;font-size:21.0996px;line-height:normal;font-family:Arial;-inkscape-font-specification:'Arial, Normal';font-variant-ligatures:normal;font-variant-position:super;font-variant-caps:normal;font-variant-numeric:normal;font-variant-east-asian:normal;text-align:center;text-decoration-color:#000000;letter-spacing:0px;text-anchor:middle;fill:#ffffff;stroke:#ffffff;stroke-width:1;stroke-linejoin:miter;stroke-dasharray:none;stroke-opacity:1"
         x="-204.73541"
         y="306.53284"
         id="text38"><tspan
           x="-204.73541"
           y="306.53284"
           style="font-style:normal;font-variant:normal;font-weight:normal;font-stretch:normal;font-size:21.0996px;font-family:Sans;-inkscape-font-specification:'Sans, ';font-variant-ligatures:normal;font-variant-caps:normal;font-variant-numeric:normal;font-variant-east-asian:normal;fill:#ffffff;stroke:#ffffff;stroke-width:1;stroke-linejoin:miter;stroke-dasharray:none;stroke-opacity:1"
           id="tspan38">ulti-logiciel</tspan></text><text
         xml:space="preserve"
         style="font-style:normal;font-variant:normal;font-weight:normal;font-stretch:normal;font-size:14.3861px;line-height:normal;font-family:Arial;-inkscape-font-specification:'Arial, Normal';font-variant-ligatures:normal;font-variant-position:super;font-variant-caps:normal;font-variant-numeric:normal;font-variant-east-asian:normal;text-align:center;text-decoration-color:#000000;letter-spacing:0px;text-anchor:middle;fill:#ffffff;stroke:#ffffff;stroke-width:1;stroke-linejoin:miter;stroke-dasharray:none;stroke-opacity:1"
         x="-132.83585"
         y="306.54865"
         id="text39"><tspan
           x="-132.83585"
           y="306.54865"
           style="font-style:normal;font-variant:normal;font-weight:normal;font-stretch:normal;font-size:14.3861px;font-family:Sans;-inkscape-font-specification:'Sans, ';font-variant-ligatures:normal;font-variant-caps:normal;font-variant-numeric:normal;font-variant-east-asian:normal;fill:#ffffff;stroke:#ffffff;stroke-width:1;stroke-linejoin:miter;stroke-dasharray:none;stroke-opacity:1"
           id="tspan39">d'</tspan></text><text
         xml:space="preserve"
         style="font-style:normal;font-variant:normal;font-weight:normal;font-stretch:normal;font-size:14.3861px;line-height:normal;font-family:Arial;-inkscape-font-specification:'Arial, Normal';font-variant-ligatures:normal;font-variant-position:super;font-variant-caps:normal;font-variant-numeric:normal;font-variant-east-asian:normal;text-align:center;text-decoration-color:#000000;letter-spacing:0px;text-anchor:middle;fill:#ffffff;stroke:#ffffff;stroke-width:1;stroke-linejoin:miter;stroke-dasharray:none;stroke-opacity:1"
         x="-144.10956"
         y="332.96179"
         id="text40"><tspan
           x="-144.10956"
           y="332.96179"
           style="font-style:normal;font-variant:normal;font-weight:normal;font-stretch:normal;font-size:14.3861px;font-family:Sans;-inkscape-font-specification:'Sans, ';font-variant-ligatures:normal;font-variant-caps:normal;font-variant-numeric:normal;font-variant-east-asian:normal;fill:#ffffff;stroke:#ffffff;stroke-width:1;stroke-linejoin:miter;stroke-dasharray:none;stroke-opacity:1"
           id="tspan40">à l'</tspan></text><text
         xml:space="preserve"
         style="font-style:normal;font-variant:normal;font-weight:normal;font-stretch:normal;font-size:14.3861px;line-height:normal;font-family:Arial;-inkscape-font-specification:'Arial, Normal';font-variant-ligatures:normal;font-variant-position:super;font-variant-caps:normal;font-variant-numeric:normal;font-variant-east-asian:normal;text-align:center;text-decoration-color:#000000;letter-spacing:0px;text-anchor:middle;fill:#ffffff;stroke:#ffffff;stroke-width:1;stroke-linejoin:miter;stroke-dasharray:none;stroke-opacity:1"
         x="-106.38551"
         y="358.96973"
         id="text41"><tspan
           x="-106.38551"
           y="358.96973"
           style="font-style:normal;font-variant:normal;font-weight:normal;font-stretch:normal;font-size:14.3861px;font-family:Sans;-inkscape-font-specification:'Sans, ';font-variant-ligatures:normal;font-variant-caps:normal;font-variant-numeric:normal;font-variant-east-asian:normal;fill:#ffffff;stroke:#ffffff;stroke-width:1;stroke-linejoin:miter;stroke-dasharray:none;stroke-opacity:1"
           id="tspan41">des</tspan></text><text
         xml:space="preserve"
         style="font-style:normal;font-variant:normal;font-weight:normal;font-stretch:normal;font-size:21.0996px;line-height:normal;font-family:Arial;-inkscape-font-specification:'Arial, Normal';font-variant-ligatures:normal;font-variant-position:super;font-variant-caps:normal;font-variant-numeric:normal;font-variant-east-asian:normal;text-align:center;text-decoration-color:#000000;letter-spacing:0px;text-anchor:middle;fill:#ffffff;stroke:#ffffff;stroke-width:1;stroke-linejoin:miter;stroke-dasharray:none;stroke-opacity:1"
         x="-213.15141"
         y="332.85413"
         id="text42"><tspan
           x="-213.15141"
           y="332.85413"
           style="font-style:normal;font-variant:normal;font-weight:normal;font-stretch:normal;font-size:21.0996px;font-family:Sans;-inkscape-font-specification:'Sans, ';font-variant-ligatures:normal;font-variant-caps:normal;font-variant-numeric:normal;font-variant-east-asian:normal;fill:#ffffff;stroke:#ffffff;stroke-width:1;stroke-linejoin:miter;stroke-dasharray:none;stroke-opacity:1"
           id="tspan42">ssistance</tspan></text><text
         xml:space="preserve"
         style="font-style:normal;font-variant:normal;font-weight:normal;font-stretch:normal;font-size:21.0996px;line-height:normal;font-family:Arial;-inkscape-font-specification:'Arial, Normal';font-variant-ligatures:normal;font-variant-position:super;font-variant-caps:normal;font-variant-numeric:normal;font-variant-east-asian:normal;text-align:center;text-decoration-color:#000000;letter-spacing:0px;text-anchor:middle;fill:#ffffff;stroke:#ffffff;stroke-width:1;stroke-linejoin:miter;stroke-dasharray:none;stroke-opacity:1"
         x="-195.33974"
         y="359.63995"
         id="text43"><tspan
           x="-195.33974"
           y="359.63995"
           style="font-style:normal;font-variant:normal;font-weight:normal;font-stretch:normal;font-size:21.0996px;font-family:Sans;-inkscape-font-specification:'Sans, ';font-variant-ligatures:normal;font-variant-caps:normal;font-variant-numeric:normal;font-variant-east-asian:normal;fill:#ffffff;stroke:#ffffff;stroke-width:1;stroke-linejoin:miter;stroke-dasharray:none;stroke-opacity:1"
           id="tspan43">nseignement</tspan></text><text
         xml:space="preserve"
         style="font-style:normal;font-variant:normal;font-weight:normal;font-stretch:normal;font-size:23.9132px;line-height:1.1;font-family:Arial;-inkscape-font-specification:'Arial, Normal';font-variant-ligatures:normal;font-variant-position:super;font-variant-caps:normal;font-variant-numeric:normal;font-variant-east-asian:normal;text-align:center;text-decoration-color:#000000;letter-spacing:0px;word-spacing:7.19306px;text-anchor:middle;fill:#ffffff;stroke:none;stroke-width:5.0122;stroke-dasharray:none"
         x="-275.22598"
         y="306.69012"
         id="text47"><tspan
           id="tspan44"
           x="-275.22598"
           y="306.69012"
           style="font-style:normal;font-variant:normal;font-weight:normal;font-stretch:normal;font-size:23.9132px;line-height:1.1;font-family:'Arial Black';-inkscape-font-specification:'Arial Black, Normal';font-variant-ligatures:normal;font-variant-caps:normal;font-variant-numeric:normal;font-variant-east-asian:normal;word-spacing:7.19306px;fill:#ffffff;stroke-width:5.0122"
           dy="0"
           rotate="0 0">M</tspan><tspan
           x="-275.22598"
           y="333.09448"
           style="font-style:normal;font-variant:normal;font-weight:normal;font-stretch:normal;font-size:23.9132px;line-height:1.1;font-family:'Arial Black';-inkscape-font-specification:'Arial Black, Normal';font-variant-ligatures:normal;font-variant-caps:normal;font-variant-numeric:normal;font-variant-east-asian:normal;word-spacing:7.19306px;fill:#ffffff;stroke-width:5.0122"
           id="tspan45"
           rotate="0 0">A</tspan><tspan
           x="-275.22598"
           y="359.49887"
           style="font-style:normal;font-variant:normal;font-weight:normal;font-stretch:normal;font-size:23.9132px;line-height:1.1;font-family:'Arial Black';-inkscape-font-specification:'Arial Black, Normal';font-variant-ligatures:normal;font-variant-caps:normal;font-variant-numeric:normal;font-variant-east-asian:normal;word-spacing:7.19306px;fill:#ffffff;stroke-width:5.0122"
           id="tspan46"
           rotate="0 0">E</tspan><tspan
           x="-275.22598"
           y="385.90323"
           style="font-style:normal;font-variant:normal;font-weight:normal;font-stretch:normal;font-size:23.9132px;line-height:1.1;font-family:'Arial Black';-inkscape-font-specification:'Arial Black, Normal';font-variant-ligatures:normal;font-variant-caps:normal;font-variant-numeric:normal;font-variant-east-asian:normal;word-spacing:7.19306px;fill:#ffffff;stroke-width:5.0122"
           id="tspan47"
           rotate="0 0">L</tspan></text><text
         xml:space="preserve"
         style="font-style:normal;font-variant:normal;font-weight:normal;font-stretch:normal;font-size:21.0996px;line-height:normal;font-family:Arial;-inkscape-font-specification:'Arial, Normal';font-variant-ligatures:normal;font-variant-position:super;font-variant-caps:normal;font-variant-numeric:normal;font-variant-east-asian:normal;text-align:center;text-decoration-color:#000000;letter-spacing:0px;text-anchor:middle;fill:#ffffff;stroke:#ffffff;stroke-width:1;stroke-linejoin:miter;stroke-dasharray:none;stroke-opacity:1"
         x="-225.85754"
         y="385.91455"
         id="text48"><tspan
           x="-225.85754"
           y="385.91455"
           style="font-style:normal;font-variant:normal;font-weight:normal;font-stretch:normal;font-size:21.0996px;font-family:Sans;-inkscape-font-specification:'Sans, ';font-variant-ligatures:normal;font-variant-caps:normal;font-variant-numeric:normal;font-variant-east-asian:normal;fill:#ffffff;stroke:#ffffff;stroke-width:1;stroke-linejoin:miter;stroke-dasharray:none;stroke-opacity:1"
           id="tspan48">angues</tspan></text></g><g
       id="g38"
       transform="matrix(1.9350523,0,0,1.9350523,107.07771,-190.89205)"><text
         xml:space="preserve"
         style="font-style:normal;font-variant:normal;font-weight:normal;font-stretch:normal;font-size:21.0996px;line-height:normal;font-family:Arial;-inkscape-font-specification:'Arial, Normal';font-variant-ligatures:normal;font-variant-position:super;font-variant-caps:normal;font-variant-numeric:normal;font-variant-east-asian:normal;text-align:center;text-decoration-color:#000000;letter-spacing:0px;text-anchor:middle;fill:#000000;stroke:#000000;stroke-width:1;stroke-linejoin:miter;stroke-dasharray:none;stroke-opacity:1"
         x="-204.73541"
         y="306.53284"
         id="text4"><tspan
           x="-204.73541"
           y="306.53284"
           style="font-style:normal;font-variant:normal;font-weight:normal;font-stretch:normal;font-size:21.0996px;font-family:Sans;-inkscape-font-specification:'Sans, ';font-variant-ligatures:normal;font-variant-caps:normal;font-variant-numeric:normal;font-variant-east-asian:normal;stroke:#000000;stroke-width:1;stroke-linejoin:miter;stroke-dasharray:none;stroke-opacity:1"
           id="tspan4">ulti-logiciel</tspan></text><text
         xml:space="preserve"
         style="font-style:normal;font-variant:normal;font-weight:normal;font-stretch:normal;font-size:14.3861px;line-height:normal;font-family:Arial;-inkscape-font-specification:'Arial, Normal';font-variant-ligatures:normal;font-variant-position:super;font-variant-caps:normal;font-variant-numeric:normal;font-variant-east-asian:normal;text-align:center;text-decoration-color:#000000;letter-spacing:0px;text-anchor:middle;fill:#000000;stroke:#000000;stroke-width:1;stroke-linejoin:miter;stroke-dasharray:none;stroke-opacity:1"
         x="-132.83585"
         y="306.54865"
         id="text8"><tspan
           x="-132.83585"
           y="306.54865"
           style="font-style:normal;font-variant:normal;font-weight:normal;font-stretch:normal;font-size:14.3861px;font-family:Sans;-inkscape-font-specification:'Sans, ';font-variant-ligatures:normal;font-variant-caps:normal;font-variant-numeric:normal;font-variant-east-asian:normal;stroke:#000000;stroke-width:1;stroke-linejoin:miter;stroke-dasharray:none;stroke-opacity:1"
           id="tspan8">d'</tspan></text><text
         xml:space="preserve"
         style="font-style:normal;font-variant:normal;font-weight:normal;font-stretch:normal;font-size:14.3861px;line-height:normal;font-family:Arial;-inkscape-font-specification:'Arial, Normal';font-variant-ligatures:normal;font-variant-position:super;font-variant-caps:normal;font-variant-numeric:normal;font-variant-east-asian:normal;text-align:center;text-decoration-color:#000000;letter-spacing:0px;text-anchor:middle;fill:#000000;stroke:#000000;stroke-width:1;stroke-linejoin:miter;stroke-dasharray:none;stroke-opacity:1"
         x="-144.10956"
         y="332.96179"
         id="text12"><tspan
           x="-144.10956"
           y="332.96179"
           style="font-style:normal;font-variant:normal;font-weight:normal;font-stretch:normal;font-size:14.3861px;font-family:Sans;-inkscape-font-specification:'Sans, ';font-variant-ligatures:normal;font-variant-caps:normal;font-variant-numeric:normal;font-variant-east-asian:normal;stroke:#000000;stroke-width:1;stroke-linejoin:miter;stroke-dasharray:none;stroke-opacity:1"
           id="tspan12">à l'</tspan></text><text
         xml:space="preserve"
         style="font-style:normal;font-variant:normal;font-weight:normal;font-stretch:normal;font-size:14.3861px;line-height:normal;font-family:Arial;-inkscape-font-specification:'Arial, Normal';font-variant-ligatures:normal;font-variant-position:super;font-variant-caps:normal;font-variant-numeric:normal;font-variant-east-asian:normal;text-align:center;text-decoration-color:#000000;letter-spacing:0px;text-anchor:middle;fill:#000000;stroke:#000000;stroke-width:1;stroke-linejoin:miter;stroke-dasharray:none;stroke-opacity:1"
         x="-106.38551"
         y="358.96973"
         id="text13"><tspan
           x="-106.38551"
           y="358.96973"
           style="font-style:normal;font-variant:normal;font-weight:normal;font-stretch:normal;font-size:14.3861px;font-family:Sans;-inkscape-font-specification:'Sans, ';font-variant-ligatures:normal;font-variant-caps:normal;font-variant-numeric:normal;font-variant-east-asian:normal;stroke:#000000;stroke-width:1;stroke-linejoin:miter;stroke-dasharray:none;stroke-opacity:1"
           id="tspan13">des</tspan></text><text
         xml:space="preserve"
         style="font-style:normal;font-variant:normal;font-weight:normal;font-stretch:normal;font-size:21.0996px;line-height:normal;font-family:Arial;-inkscape-font-specification:'Arial, Normal';font-variant-ligatures:normal;font-variant-position:super;font-variant-caps:normal;font-variant-numeric:normal;font-variant-east-asian:normal;text-align:center;text-decoration-color:#000000;letter-spacing:0px;text-anchor:middle;fill:#000000;stroke:#000000;stroke-width:1;stroke-linejoin:miter;stroke-dasharray:none;stroke-opacity:1"
         x="-213.15141"
         y="332.85413"
         id="text14"><tspan
           x="-213.15141"
           y="332.85413"
           style="font-style:normal;font-variant:normal;font-weight:normal;font-stretch:normal;font-size:21.0996px;font-family:Sans;-inkscape-font-specification:'Sans, ';font-variant-ligatures:normal;font-variant-caps:normal;font-variant-numeric:normal;font-variant-east-asian:normal;stroke:#000000;stroke-width:1;stroke-linejoin:miter;stroke-dasharray:none;stroke-opacity:1"
           id="tspan14">ssistance</tspan></text><text
         xml:space="preserve"
         style="font-style:normal;font-variant:normal;font-weight:normal;font-stretch:normal;font-size:21.0996px;line-height:normal;font-family:Arial;-inkscape-font-specification:'Arial, Normal';font-variant-ligatures:normal;font-variant-position:super;font-variant-caps:normal;font-variant-numeric:normal;font-variant-east-asian:normal;text-align:center;text-decoration-color:#000000;letter-spacing:0px;text-anchor:middle;fill:#000000;stroke:#000000;stroke-width:1;stroke-linejoin:miter;stroke-dasharray:none;stroke-opacity:1"
         x="-195.33974"
         y="359.63995"
         id="text15"><tspan
           x="-195.33974"
           y="359.63995"
           style="font-style:normal;font-variant:normal;font-weight:normal;font-stretch:normal;font-size:21.0996px;font-family:Sans;-inkscape-font-specification:'Sans, ';font-variant-ligatures:normal;font-variant-caps:normal;font-variant-numeric:normal;font-variant-east-asian:normal;stroke:#000000;stroke-width:1;stroke-linejoin:miter;stroke-dasharray:none;stroke-opacity:1"
           id="tspan15">nseignement</tspan></text><text
         xml:space="preserve"
         style="font-style:normal;font-variant:normal;font-weight:normal;font-stretch:normal;font-size:23.9132px;line-height:1.1;font-family:Arial;-inkscape-font-specification:'Arial, Normal';font-variant-ligatures:normal;font-variant-position:super;font-variant-caps:normal;font-variant-numeric:normal;font-variant-east-asian:normal;text-align:center;text-decoration-color:#000000;letter-spacing:0px;word-spacing:7.19306px;text-anchor:middle;fill:#000000;stroke:none;stroke-width:5.0122;stroke-dasharray:none"
         x="-275.87198"
         y="306.47479"
         id="text19"><tspan
           id="tspan16"
           x="-275.87198"
           y="306.47479"
           style="font-style:normal;font-variant:normal;font-weight:normal;font-stretch:normal;font-size:23.9132px;line-height:1.1;font-family:'Arial Black';-inkscape-font-specification:'Arial Black, Normal';font-variant-ligatures:normal;font-variant-caps:normal;font-variant-numeric:normal;font-variant-east-asian:normal;word-spacing:7.19306px;stroke-width:5.0122"
           dy="0"
           rotate="0 0">M</tspan><tspan
           x="-275.87198"
           y="332.87915"
           style="font-style:normal;font-variant:normal;font-weight:normal;font-stretch:normal;font-size:23.9132px;line-height:1.1;font-family:'Arial Black';-inkscape-font-specification:'Arial Black, Normal';font-variant-ligatures:normal;font-variant-caps:normal;font-variant-numeric:normal;font-variant-east-asian:normal;word-spacing:7.19306px;stroke-width:5.0122"
           id="tspan17"
           rotate="0 0">A</tspan><tspan
           x="-275.87198"
           y="359.28354"
           style="font-style:normal;font-variant:normal;font-weight:normal;font-stretch:normal;font-size:23.9132px;line-height:1.1;font-family:'Arial Black';-inkscape-font-specification:'Arial Black, Normal';font-variant-ligatures:normal;font-variant-caps:normal;font-variant-numeric:normal;font-variant-east-asian:normal;word-spacing:7.19306px;stroke-width:5.0122"
           id="tspan18"
           rotate="0 0">E</tspan><tspan
           x="-275.87198"
           y="385.6879"
           style="font-style:normal;font-variant:normal;font-weight:normal;font-stretch:normal;font-size:23.9132px;line-height:1.1;font-family:'Arial Black';-inkscape-font-specification:'Arial Black, Normal';font-variant-ligatures:normal;font-variant-caps:normal;font-variant-numeric:normal;font-variant-east-asian:normal;word-spacing:7.19306px;stroke-width:5.0122"
           id="tspan19"
           rotate="0 0">L</tspan></text><text
         xml:space="preserve"
         style="font-style:normal;font-variant:normal;font-weight:normal;font-stretch:normal;font-size:21.0996px;line-height:normal;font-family:Arial;-inkscape-font-specification:'Arial, Normal';font-variant-ligatures:normal;font-variant-position:super;font-variant-caps:normal;font-variant-numeric:normal;font-variant-east-asian:normal;text-align:center;text-decoration-color:#000000;letter-spacing:0px;text-anchor:middle;fill:#000000;stroke:#000000;stroke-width:1;stroke-linejoin:miter;stroke-dasharray:none;stroke-opacity:1"
         x="-225.85754"
         y="385.91455"
         id="text20"><tspan
           x="-225.85754"
           y="385.91455"
           style="font-style:normal;font-variant:normal;font-weight:normal;font-stretch:normal;font-size:21.0996px;font-family:Sans;-inkscape-font-specification:'Sans, ';font-variant-ligatures:normal;font-variant-caps:normal;font-variant-numeric:normal;font-variant-east-asian:normal;stroke:#000000;stroke-width:1;stroke-linejoin:miter;stroke-dasharray:none;stroke-opacity:1"
           id="tspan20">angues</tspan></text></g><g
       id="g37"
       transform="translate(-818.09957,-0.41666663)"><rect
         style="fill:#ffffff;fill-opacity:0.698767;stroke-width:17.6673;-inkscape-stroke:none"
         id="rect21"
         width="205.47502"
         height="206.1342"
         x="127.61102"
         y="355.52942"
         ry="37.188812" /><g
         id="g28"
         transform="matrix(0.55879171,0,0,0.55879171,-5.7051685,39.418153)"><g
           id="g26"
           transform="matrix(0.90867072,0,0,0.90867072,167.5148,182.98286)"><path
             id="path25"
             style="fill:#000000;stroke-width:2.34978"
             d="m 120.75586,464.38867 v 52.86914 52.8711 h 52.86914 52.87109 v -52.8711 -52.86914 H 173.625 Z m 122.1875,0 v 7.04883 7.04883 h 7.05078 7.04883 v -7.04883 -7.04883 h -7.04883 z m 14.09961,14.09766 v 8.22461 8.22461 h 8.22461 8.22461 v -8.22461 -8.22461 h -8.22461 z m 16.44922,16.44922 v 7.04883 7.04882 h 7.04883 7.04882 v -7.04882 -7.04883 h -7.04882 z m 14.09765,0 h 8.22461 8.22461 v -8.22461 -8.22461 h -8.22461 -8.22461 v 8.22461 z m 16.44922,-16.44922 h 7.04883 7.04883 v -7.04883 -7.04883 h -7.04883 -7.04883 v 7.04883 z m -16.44922,30.54687 v 8.22461 8.22461 h 15.27344 15.27344 v -8.22461 -8.22461 h -15.27344 z m 0,16.44922 h -7.04882 -7.04883 v -8.22461 -8.22461 h -8.22461 -8.22461 v 8.22461 8.22461 h -7.04883 -7.05078 v 7.04883 7.05078 h 15.27539 15.27344 v 15.27344 15.27344 h -8.22461 -8.22461 v -7.05079 -7.04882 h -7.04883 -7.05078 v 15.27343 15.27344 h 7.05078 7.04883 v 12.85742 h 16.44922 v -12.85742 h 15.27343 15.27344 v -8.22461 -8.22265 h -8.22461 -8.22461 v -22.32422 z m 16.44922,44.64649 h 7.04883 7.04883 v -7.05079 -7.04882 h -7.04883 -7.04883 v 7.04882 z m 0,16.44726 v 7.05078 5.80664 h 14.09766 v -5.80664 -7.05078 h -7.04883 z M 257.04297,509.0332 v -7.04882 -7.04883 h -7.04883 -7.05078 v 7.04883 7.04882 h 7.05078 z m 77.54297,-44.64453 v 52.86914 52.8711 h 52.86914 52.87109 v -52.8711 -52.86914 h -52.87109 z m -199.73242,14.09766 h 38.77148 38.77148 v 38.77148 38.77149 H 173.625 134.85352 v -38.77149 z m 213.83007,0 h 38.77149 38.77148 v 38.77148 38.77149 h -38.77148 -38.77149 v -38.77149 z m -197.38086,16.44922 v 22.32226 22.32422 H 173.625 195.94922 V 517.25781 494.93555 H 173.625 Z m 213.83008,0 v 22.32226 22.32422 h 22.32227 22.32422 v -22.32422 -22.32226 h -22.32422 z m -169.18359,91.64062 v 7.05078 7.04883 h 15.27344 15.27343 v -7.04883 -7.05078 h -15.27343 z m 30.54687,14.09961 v 8.22461 8.22266 h -7.04882 -7.05079 v 7.05078 7.04883 h 7.05079 7.04882 v 8.22461 8.22461 h -15.27343 -15.27344 v 7.04882 7.04883 h 23.49805 23.49609 v 8.22461 8.22461 h 7.05078 6.6543 v -46.99609 h -6.6543 -7.05078 v -15.27344 -15.27344 h -8.22266 z m 108.08985,-14.09961 v 7.05078 5.80664 h 14.09765 v -5.80664 -7.05078 h -7.04882 z m 30.54687,0 v 7.05078 5.80664 h 14.09766 v -12.85742 h -7.04883 z m 30.54688,0 v 12.85742 h 14.09961 v -5.80664 -7.05078 h -7.05078 z m 30.54687,0 v 7.05078 5.80664 h 14.09961 v -12.85742 h -7.05078 z m -305.4707,14.09961 v 30.54688 30.54687 h 7.04883 7.04883 v -7.04883 -7.04882 h 8.2246 8.22461 v -15.2754 -15.27343 h -8.22461 -8.2246 v -8.22266 -8.22461 h -7.04883 z m 30.54687,16.44727 h 7.04883 7.05078 v 7.05078 7.04883 h 15.27344 15.27344 v -7.04883 -7.05078 h -7.05078 -7.04883 v -8.22266 -8.22461 h -15.27344 -15.27344 v 8.22461 z m 14.09961,30.54883 v 7.04882 7.04883 h 8.22266 8.22461 v -7.04883 -7.04882 H 173.625 Z m -44.64648,30.54687 v 52.86914 52.87109 H 173.625 226.49609 V 731.08789 678.21875 H 173.625 Z m 14.09766,14.09766 h 38.77148 38.77148 v 38.77148 38.77149 H 173.625 134.85352 v -38.77149 z m 108.08984,0 v 8.22461 8.2246 h 7.05078 6.6543 v -16.44921 h -6.6543 z m -91.64063,16.44921 v 22.32227 22.32227 H 173.625 195.94922 V 731.08789 708.76562 H 173.625 Z" /></g><path
           id="path27"
           style="color:#000000;fill:#000000;stroke-width:1.98502;-inkscape-stroke:none"
           d="m 297.96104,560.45763 c -36.03235,0 -65.21885,29.18652 -65.21885,65.21885 v 41.86381 h 11.42551 v -41.86381 c 0,-29.89918 23.89414,-53.79334 53.79334,-53.79334 h 41.85994 v -11.42551 z m 207.08595,0 v 11.42551 h 41.86381 c 29.89922,0 53.79334,23.89416 53.79334,53.79334 v 41.86381 h 11.42551 v -41.86381 c 0,-36.03233 -29.18648,-65.21885 -65.21885,-65.21885 z m -272.3048,272.3048 v 41.86381 c 0,36.03233 29.1865,65.21885 65.21885,65.21885 h 41.85994 v -11.42938 h -41.85994 c -29.8992,0 -53.79334,-23.89023 -53.79334,-53.78947 v -41.86381 z m 367.96195,0 v 41.86381 c 0,29.89924 -23.89412,53.78947 -53.79334,53.78947 h -41.86381 v 11.42938 h 41.86381 c 36.03237,0 65.21885,-29.18652 65.21885,-65.21885 v -41.86381 z" /></g><text
         xml:space="preserve"
         style="font-size:29.0035px;line-height:normal;font-family:Affistory;-inkscape-font-specification:'Affistory, Normal';font-variant-position:super;text-align:center;text-decoration-color:#000000;letter-spacing:0px;text-anchor:middle;fill:#ffffff;stroke:none;stroke-width:6.07914;stroke-dasharray:none"
         x="273.74734"
         y="537.64117"
         id="text28"><tspan
           id="tspan28"
           x="277.7764"
           y="537.64117"
           style="font-style:normal;font-variant:normal;font-weight:normal;font-stretch:normal;font-size:29.0035px;font-family:Arial;-inkscape-font-specification:'Arial, Normal';font-variant-ligatures:normal;font-variant-caps:normal;font-variant-numeric:normal;font-variant-east-asian:normal;fill:#000000;stroke-width:6.07914"> </tspan></text><text
         xml:space="preserve"
         style="font-style:normal;font-variant:normal;font-weight:normal;font-stretch:normal;font-size:33.2448px;line-height:normal;font-family:Arial;-inkscape-font-specification:'Arial, Normal';font-variant-ligatures:normal;font-variant-position:super;font-variant-caps:normal;font-variant-numeric:normal;font-variant-east-asian:normal;text-align:center;text-decoration-color:#000000;letter-spacing:0px;text-anchor:middle;fill:#000000;stroke:none;stroke-width:6.96811;stroke-dasharray:none"
         x="260.63559"
         y="539.73212"
         id="text29"><tspan
           id="tspan29"
           x="260.63559"
           y="539.73212"
           style="font-style:normal;font-variant:normal;font-weight:normal;font-stretch:normal;font-size:33.2448px;font-family:'Arial Black';-inkscape-font-specification:'Arial Black, Normal';font-variant-ligatures:normal;font-variant-caps:normal;font-variant-numeric:normal;font-variant-east-asian:normal;stroke-width:6.96811">MAEL</tspan></text><g
         id="g36"
         transform="matrix(0.01364732,0,0,0.01364732,240.282,418.23027)"><path
           id="path29"
           style="fill:url(#linearGradient37);stroke-width:337.235;-inkscape-stroke:none"
           d="m 5114.4502,4264.4169 c -26.5865,2.0002 -112.9046,-86.459 -137.768,-77.49 -41.2073,16.214 -96.1631,81.0769 -133.5795,104.9778 -19.5601,11.1337 49.3954,69.0514 49.1503,84.6425 -7.6964,21.0299 -27.6114,33.5543 -44.6422,46.4607 -69.7744,52.1437 -138.6052,105.5498 -208.7312,157.2188 -158.624,115.4995 -328.096,213.7393 -499.235,309.2537 -239.3631,132.7401 -482.2108,258.3383 -725.087,385.235 -77.2437,40.257 -154.5315,80.4325 -232.203,119.8588 -62.4661,31.2637 -125.8652,63.2872 -191.2826,89.0872 -61.0851,23.5621 -123.1794,44.4248 -185.3812,64.8206 -117.5431,37.9213 -236.365,69.6607 -357.4088,94.344 -86.6562,17.6962 -174.0575,31.6977 -262.3459,42.1455 -33.5101,4.0188 -67.5244,7.4469 -100.9991,10.446 -158.1232,13.8994 -317.4741,16.8716 -476.836,12.443 -89.3194,-2.4673 -178.7106,-7.2858 -268.1277,-13.7701 -68.3346,-4.5474 -138.2239,-13.2027 -205.4659,-25.8554 -43.09,-8.0445 -85.7216,-17.7664 -127.6913,-28.9938 -46.30733,-12.4067 -91.99018,-26.6811 -136.80747,-42.604 -43.30899,-15.3841 -85.60443,-32.1318 -127.94497,-50.5419 C 594.8854,5482.0682 454.16658,5401.4025 319.57426,5313.4078 229.15131,5252.4033 146.42124,5180.7484 67.453562,5105.706 -16.935453,5024.7362 -97.250334,4939.1569 -168.66628,4846.4407 c -33.1462,-43.3731 -64.18127,-88.6522 -88.23629,-137.7794 -11.12789,-21.4164 10.94467,-102.4079 -0.18503,-123.8233 -77.59019,-6.0304 -176.87654,-16.8044 -254.41213,-23.5167 -80.66388,-16.9424 -106.76407,-13.5361 -169.95963,-11.5922 -9.12063,11.5203 -123.55275,49.8857 -116.07376,60.5085 19.59963,28.3235 150.23485,97.9748 173.60203,123.1389 62.02505,65.1204 127.32037,128.0308 188.28426,193.5713 87.00524,92.3974 167.02988,191.1561 242.02017,293.4918 104.592583,142.5668 202.970023,289.5422 301.50438,436.3194 90.93418,135.7731 181.51307,271.9663 280.6374,401.9688 55.59003,72.0518 113.61604,143.1013 182.60717,202.8704 44.57815,38.9064 95.16091,70.722 149.29805,94.5597 83.09388,37.2587 169.28843,67.1285 256.07463,94.506 72.37573,22.2228 145.38653,43.14 219.99403,56.4459 46.9632,6.0165 84.4706,32.7602 131.7352,34.4982 171.4611,4.5992 342.8281,2.9353 514.2562,-2.0876 121.8643,-3.9608 254.3088,-38.1361 373.9025,-63.1467 127.8611,-26.4401 252.1631,-67.1104 376.3111,-106.9906 224.9702,-73.4838 443.4595,-166.8167 652.2348,-278.2601 169.5188,-90.8969 333.3225,-193.7463 482.5019,-315.5154 195.9736,-159.2798 377.7753,-335.174 553.3807,-516.4244 142.3806,-146.8611 279.1716,-299.0068 418.5763,-448.6809 88.3205,-95.3627 176.906,-190.3616 265.9099,-284.8736 50.3358,-54.6682 100.8379,-109.4881 145.0696,-169.3127 12.9255,-18.8 27.425,-37.8036 32.357,-60.5297 2.7168,-13.0295 -4.8851,-28.2203 -18.7012,-30.5906 -3.1508,-0.5978 -6.3631,-0.8923 -9.5728,-0.7797 z" /><path
           id="path30"
           style="mix-blend-mode:normal;fill:url(#linearGradient38);stroke-width:168.617;-inkscape-stroke:none;filter:url(#filter1-6)"
           d="m 2195.7992,2693.671 c -40.1176,0.2685 -76.8201,18.6865 -112.9941,33.874 -138.625,59.9007 -267.6131,139.415 -393.595,222.0991 -87.5901,57.8857 -173.5195,119.7176 -269.5969,163.1081 -56.6592,25.812 -118.4078,42.4289 -181.0263,41.0411 -36.2683,-0.6065 -73.1754,-4.2494 -106.9394,-18.3989 -67.5312,-27.394 -129.9513,-65.8369 -197.41768,-93.3712 -20.31344,-7.7847 -43.57243,-15.857 -64.92467,-7.3861 -20.52047,10.9744 -37.31401,27.5749 -54.89604,42.5717 -73.84761,66.9943 -143.55003,138.3799 -212.85653,210.0125 -83.52359,86.9429 -165.01564,175.8386 -243.73635,267.1582 -98.69728,112.8788 -202.20595,221.5084 -309.704999,326.0316 -107.554469,104.8707 -217.456701,207.2974 -327.712271,309.3126 -102.64423,94.7207 -207.24282,187.4914 -317.27055,273.6071 -44.18669,34.6623 -89.63208,69.4789 -132.0748,106.9125 -8.70209,8.3842 -20.94502,16.3925 -20.98913,29.8465 -1.3983,9.9461 -16.52337,62.1935 -24.6965,45.0797 157.32974,14.5368 321.12872,-14.5047 478.46014,0.018 9.37625,-14.6217 29.97892,-2.7299 40.86152,-16.3415 16.59348,-17.1738 39.99459,-25.0209 61.43772,-34.2299 40.41383,-15.2456 81.39501,-29.0547 120.992842,-46.3949 132.82756,-56.8592 257.308188,-131.0456 379.358688,-207.8787 74.5772,-47.4032 148.71338,-95.5394 221.34042,-145.8865 76.10616,-52.5102 146.17589,-113.0495 214.99627,-174.6257 48.9731,-44.0542 98.69114,-87.3086 146.49559,-132.6327 13.39412,-13.8187 29.37431,-27.0483 35.46799,-45.9583 4.00056,-13.6254 -4.14715,-27.3991 -15.45429,-34.7013 -30.49019,-21.7438 -59.24674,-45.9731 -86.17026,-71.9937 -2.88217,-3.384 -7.13333,-6.5936 -8.25604,-10.9009 1.98395,-5.3348 5.09396,-10.2598 8.91708,-14.4667 63.07237,27.7187 124.62261,58.7859 186.44145,89.159 65.6298,32.1447 131.1929,64.9367 199.8938,90.1163 46.8497,17.4502 97.0166,23.3889 146.6505,26.0806 109.4388,5.0263 218.7138,-10.7901 325.4305,-33.8983 137.7984,-30.2857 272.0175,-74.7643 403.8851,-124.5429 58.6264,-21.2501 117.3499,-42.5164 177.3945,-59.4539 28.4136,-7.614 56.3724,-3.9546 84.9705,-0.8403 78.7432,10.9035 155.4913,32.792 231.0396,57.0394 117.1446,37.892 231.2986,88.0068 343.9462,138.878 78.8169,35.3831 156.5925,73.0264 235.4588,108.2786 81.8733,36.6133 166.3248,67.2906 252.4491,92.2995 118.9075,34.7194 239.3762,63.7533 359.7149,92.9916 85.5292,20.6834 171.8216,38.4879 259.053,50.3107 104.1594,14.347 208.6688,26.0641 313.1321,37.9622 138.2006,15.6153 276.8074,27.2881 415.5606,36.7439 33.6937,2.6267 68.6628,3.6767 101.116,15.3824 12.254,4.4356 24.2795,13.0052 27.0907,26.5172 2.4317,3.4671 2.0722,12.7956 6.2661,12.5616 82.5593,-29.4911 165.117,-58.9851 247.6721,-88.4859 -10.1965,-20.2121 -19.4281,-42.5822 -38.8908,-55.7753 -24.9587,-17.2745 -55.7433,-22.2151 -84.8525,-28.2958 -22.0947,-3.8205 -43.8732,-9.2505 -65.3579,-15.6406 -4.4035,-1.4371 -11.7169,-3.5475 -17.2206,-5.3883 -37.0465,-11.0595 -70.8616,-30.0865 -105.5785,-46.6661 -229.657,-113.8041 -458.1531,-229.5549 -686.8554,-345.3108 -255.1997,-129.2185 -510.5941,-258.061 -767.6415,-383.5786 -47.1746,-22.9288 -94.4723,-45.6325 -142.8095,-66.0301 -67.1969,-29.3309 -132.5062,-63.1521 -194.0599,-103.0625 -89.6138,-57.6423 -175.9278,-122.4733 -261.8321,-186.4321 -88.1419,-65.8601 -175.3613,-132.9532 -263.3162,-199.0585 -61.0721,-44.6285 -123.4877,-88.641 -192.7586,-119.7375 -37.7863,-16.8005 -78.6056,-27.97 -120.201,-27.627 -1.2692,0 -2.5402,-0.086 -3.8075,0 z" /><path
           id="path31"
           style="fill:url(#radialGradient38);stroke-width:84.3085;-inkscape-stroke:none"
           d="m 3229.731,4091.4744 c -36.2044,2.0184 -69.7258,17.5724 -105.044,24.3842 -57.9784,11.762 -117.44,11.256 -176.2708,14.5438 -45.8535,2.0453 -92.1323,6.8785 -135.6242,22.3762 -44.307,15.1068 -86.8537,34.8494 -131.017,50.3704 -50.2577,18.5444 -100.1413,35.6153 -151.2039,52.6237 -79.9856,26.2816 -160.73,52.4504 -242.5011,73.8754 -26.4687,6.6603 -53.6624,11.7933 -80.015,15.7532 -19.8743,2.9421 -38.6872,5.1624 -58.9046,6.9053 -55.1031,4.7502 -110.629,4.9632 -165.7347,0.1131 -11.8582,-1.0733 -25.7426,-2.5876 -38.3261,-4.3428 -40.4441,-5.0965 -80.209,-15.3763 -119.1397,-26.2287 -60.878,-16.2885 -121.4258,-36.1299 -184.6465,-40.9423 -49.388,-4.0353 -98.9735,-5.4682 -148.5157,-5.8875 -74.0651,-0.1214 -147.9925,5.8096 -221.6409,13.1585 -53.3004,5.9474 -105.9926,16.1118 -158.89,24.7508 -6.5131,0.9521 -15.6467,2.3338 -23.1993,3.24 -51.571,6.5623 -105.42153,10.2695 -158.18298,10.6038 -46.06915,0.2598 -92.68667,-3.0486 -136.95642,-16.6021 -3.32501,-0.9903 -10.20621,-3.1032 -14.89029,-4.5344 -22.77036,-7.3662 -46.79858,-15.5669 -68.2903,-23.8913 -33.70671,-13.3838 -68.27983,-27.8895 -94.47907,-53.8063 -9.37792,-7.5465 -19.13697,-17.7353 -31.96024,-17.5144 -14.847,4.9068 -27.29696,14.9839 -40.70407,22.7747 -65.6488,42.201 -130.87404,85.1289 -194.47748,130.3637 -58.71399,41.8286 -121.04045,78.3769 -184.7141,112.0949 -57.5011,30.6262 -115.341018,59.9918 -173.5732333,88.2624 -32.3128857,15.5384 -63.9058207,30.7751 -97.2660367,44.3954 -28.97056,11.1435 -58.70185,20.3361 -87.35272,32.28 -14.11672,5.6995 -26.52243,14.5724 -37.89546,24.5697 -3.35614,3.4557 -11.50902,6.0521 -5.59641,11.1669 13.65058,23.7561 27.91543,47.2023 44.92214,68.7441 53.43115,69.4355 111.39225,135.2326 169.756254,200.5262 53.093163,58.3865 106.33375,116.8033 163.796736,170.9569 24.62518,23.1706 52.97282,45.6958 87.44458,50.749 36.86712,5.3626 74.27397,3.0876 111.39825,4.0292 35.09552,0.3986 69.62005,1.8566 104.8334,4.8047 104.65401,8.8772 208.73367,30.3775 311.83176,52.4599 123.93226,26.6697 247.10729,56.7119 370.70949,84.8189 107.6124,23.8618 215.7336,46.4815 325.2667,59.588 28.2506,3.8611 56.7395,4.886 85.2198,5.1997 59.6791,1.1833 119.5071,2.1086 179.0025,-3.6404 103.9202,-9.5182 207.4246,-23.0969 311.0286,-35.4748 141.69,-17.2562 283.1063,-35.0323 424.9914,-50.743 216.9628,-23.7605 435.252,-38.3251 653.3584,-51.9948 80.5148,-4.6929 160.9725,-9.5625 241.4788,-11.5403 23.0033,-0.7189 46.0085,-1.4016 69.011,-2.1492 244.6036,-124.8272 490.1706,-248.0872 729.2809,-383.2582 125.664,-71.2001 248.7274,-147.1686 366.7903,-230.4168 36.5162,-25.6404 73.5912,-50.4656 110.8412,-75.0137 49.8247,-33.8688 93.7696,-75.2659 139.9167,-113.7677 11.0273,-10.0857 24.1322,-17.3334 35.8441,-26.4938 9.4912,-6.8326 16.887,-19.8534 10.8574,-31.2022 -6.9669,-13.4219 -23.938,-14.245 -37.2396,-15.1156 -22.0114,-0.9251 -43.5489,-0.3984 -65.1871,-1.7057 -72.3273,-3.4723 -144.4362,-10.6818 -216.1692,-20.473 -56.1366,-6.9132 -112.5125,-11.5358 -168.8188,-16.8083 -106.7991,-10.9875 -215.4746,-24.0447 -322.8064,-38.6126 -34.6432,-4.8921 -68.2547,-9.3936 -102.8589,-16.2662 -27.2606,-5.3788 -56.1082,-11.8814 -81.9436,-18.6059 -52.2122,-14.9015 -105.2024,-26.81 -158.2497,-38.2974 -86.8442,-19.9834 -172.9443,-45.0045 -259.5112,-68.0762 -43.9779,-11.3939 -87.5521,-24.529 -132.0385,-33.8411 -11.7732,-2.2004 -23.7475,-3.6775 -35.7451,-3.2356 z" /><path
           id="path32"
           style="mix-blend-mode:normal;fill:#ffffff;stroke-width:19.4636;-inkscape-stroke:none;filter:url(#filter8-7)"
           d="m 2325.6359,4272.8984 c -16.7737,7.7639 -31.9987,18.2097 -47.4259,28.2736 -9.7578,6.3775 -19.8192,12.4412 -30.7305,16.6478 -10.9684,4.3152 -22.7878,6.6091 -34.5903,6.1679 -1.2703,-0.04 -2.5394,-0.1144 -3.806,-0.2182 5.1993,2.5031 10.5299,5.0185 15.9407,7.1737 4.275,1.3533 8.826,0.9164 13.2324,0.7634 9.4986,-0.5629 18.913,-2.5347 28.0397,-4.941 7.2668,-1.8957 14.466,-4.1539 21.5069,-6.6262 10.5146,-3.6305 20.8896,-7.6801 31.544,-10.8924 6.4601,-1.9228 13.1764,-3.2257 19.9437,-2.9811 10.6783,0.2134 21.1324,2.7252 31.4163,5.4054 5.9066,1.6078 11.7446,3.4617 17.5189,5.4927 -10.0218,-7.0989 -19.7777,-14.5609 -29.6298,-21.8907 -10.0053,-7.5202 -19.8692,-15.2148 -30.3033,-22.1651 -0.4746,-0.2229 -0.9297,-0.7116 -1.4237,-0.7645 -0.411,0.1849 -0.8221,0.3698 -1.2331,0.5547 z"
           transform="matrix(8.663197,0,0,8.663197,-17952.647,-33959.615)" /><path
           id="path33"
           style="mix-blend-mode:normal;fill:#ffffff;fill-opacity:1;stroke-width:38.9272;-inkscape-stroke:none;filter:url(#filter9-9)"
           d="m 2029.0324,4472.0644 c -0.3465,0.051 -0.8394,0.4546 -0.7461,0.8125 0.4379,0.227 1.1717,-0.3367 0.8809,-0.8125 -0.045,0.01 -0.09,-0.01 -0.1348,0 z m 453.7305,86.5742 c -11.434,5.9132 -22.8525,11.859 -34.3555,17.6382 -10.4903,5.1822 -21.2976,9.7444 -32.424,13.3798 -23.2311,7.9913 -47.0894,14.2571 -71.3731,18.0638 -23.8931,3.8177 -48.1109,5.3935 -72.297,5.2985 -20.3414,-0.041 -40.684,-1.0639 -60.9208,-3.121 -26.1732,-3.1759 -51.6658,-11.0831 -75.446,-22.3901 5.6156,7.7841 11.3361,15.5179 17.7014,22.7116 4.3753,4.9167 9.2868,9.6173 15.402,12.2757 7.0335,3.108 14.2676,5.7482 21.5646,8.167 5.7518,1.8858 11.7126,3.6327 17.632,5.1589 3.571,0.9496 7.1961,1.7866 10.9031,1.927 3.3262,0.1888 6.6581,0.2436 9.9302,0.3569 18.099,0.4754 36.2077,0.2079 54.3042,-0.2456 4.4266,-0.1198 8.9856,-0.3294 13.459,-0.58 0.8429,-0.056 1.9696,-0.1381 2.9242,-0.2058 6.4733,-0.4564 13.0628,-1.1992 19.357,-2.4251 12.1242,-2.3425 23.8291,-6.0383 35.6172,-9.7708 9.869,-3.1153 19.5568,-6.4802 29.1927,-10.2466 18.9565,-7.3923 37.6887,-16.2223 55.4362,-26.2865 7.9611,-4.5247 15.8129,-9.2913 23.3404,-14.4347 7.2229,-4.9319 14.2195,-10.1938 20.9741,-15.7497 -0.3073,0.1595 -0.6146,0.319 -0.9219,0.4785 z"
           transform="matrix(8.663197,0,0,8.663197,-17952.647,-33959.615)" /><path
           id="path34"
           style="fill:#ffffff;fill-opacity:1;stroke-width:176.668;-inkscape-stroke:none"
           d="m 2294.4004,3742.5859 c -6.7701,0.1824 -13.5376,0.4672 -20.3066,0.6895 0.2915,0.8784 -0.6257,0.6588 -1.1945,0.7556 -42.6742,4.178 -84.352,15.2936 -124.8179,29.1672 -27.3766,9.3932 -54.3144,20.0026 -81.176,30.7639 -52.0595,21.1926 -103.9096,42.9774 -156.8312,61.9637 -0.2759,0.094 -1.1309,0.4022 -1.6292,0.5786 -9.8015,3.521 -19.6624,6.8735 -29.5242,10.2198 -29.9587,10.6309 -60.1895,20.4993 -90.6786,29.4985 -0.2865,0.079 -1.1522,0.3365 -1.6611,0.4841 -13.7078,4.0336 -27.4725,7.8724 -41.2823,11.5412 -0.2249,0.054 -1.1601,0.3036 -1.6591,0.4331 -1.8408,0.4826 -3.6817,0.9652 -5.5225,1.4478 -0.2602,0.07 -1.162,0.2995 -1.669,0.431 -1.8428,0.4742 -3.6855,0.9483 -5.5283,1.4225 -0.2428,0.057 -1.1633,0.2928 -1.6672,0.4186 -25.7618,6.5411 -52.1912,12.481 -77.97,17.5202 -55.4529,10.826 -111.6038,18.228 -168.0257,21.396 -5.1511,0.2863 -10.304,0.5349 -15.4582,0.759 -0.089,-8e-4 -1.147,0.044 -1.5932,0.061 -27.0315,1.1074 -54.1057,1.2165 -81.1422,0.2115 -40.4035,-1.4836 -80.7369,-5.3214 -120.6298,-11.9323 -0.037,-0.012 -1.1274,-0.1917 -1.5589,-0.2664 -15.8693,-2.662 -31.6688,-5.7575 -47.3542,-9.3456 -6.9149,-2.3115 -13.8085,-4.6859 -20.6885,-7.0989 -0.1878,-0.071 -1.129,-0.4018 -1.6082,-0.5733 -20.9548,-7.4108 -41.7315,-15.3184 -62.3761,-23.5517 -0.3431,-0.1331 -1.1148,-0.4462 -1.622,-0.6482 -8.8971,-3.5546 -17.768,-7.1743 -26.6222,-10.8342 -0.3513,-0.1505 -1.1085,-0.4615 -1.6152,-0.6734 -27.7297,-11.4973 -55.267,-23.451 -82.7774,-35.4614 -11.6387,-5.0844 -23.39908,-10.2295 -35.08452,-15.3377 -1.11244,-0.4864 -2.22488,-0.9728 -3.33732,-1.4592 -24.19081,23.4721 -48.45952,46.8639 -72.84368,70.135 -53.43228,51.043 -107.22675,101.704 -160.65914,152.7465 -12.4281,11.97 -24.86171,23.9138 -37.3167,35.8445 -17.08905,16.4073 -34.13544,32.8691 -50.72402,49.7824 -4.82034,6.3304 -8.69521,13.646 -9.75138,21.6186 -0.41008,3.413 -0.31897,6.8617 -0.49304,10.2911 0.0322,0.5813 -0.27836,1.3168 0.4217,1.5977 10.89013,9.0227 21.66738,18.2697 33.61772,25.8886 4.03981,2.6286 8.2577,4.9654 12.51059,7.2265 40.18937,22.6129 83.98036,38.5399 128.9816,48.4019 52.79281,11.5802 107.22034,14.9852 161.12367,11.8107 42.26832,-2.3094 84.13192,-9.4469 125.35802,-18.8548 89.8641,-14.9475 180.8658,-22.5353 271.9128,-24.5831 0.6864,-0.016 1.3727,-0.032 2.0591,-0.048 0.3283,-0.01 1.2004,-0.024 1.7372,-0.035 7.7848,-0.1638 15.5706,-0.2784 23.3566,-0.369 0.3366,4e-4 1.2006,-0.01 1.7394,-0.014 18.9497,-0.1909 37.9015,-0.141 56.8504,0.1117 0.3451,0 1.2006,0.018 1.7412,0.026 10.5829,0.1517 21.1648,0.3715 31.7451,0.6481 0.3619,0.014 1.2003,0.034 1.7446,0.051 21.7488,0.5912 43.4896,1.4597 65.2183,2.5625 0.378,0.017 1.1991,0.063 1.7468,0.091 7.784,0.4009 15.5661,0.8378 23.347,1.2962 0.3947,0.022 1.1985,0.073 1.7498,0.1057 16.1812,0.984 32.3589,2.0538 48.5205,3.3154 25.9861,2.871 51.7884,7.2326 77.4055,12.4246 0.2822,0.055 1.1758,0.241 1.6929,0.3463 14.5072,2.9711 28.9613,6.1956 43.3793,9.5717 0.3202,0.073 1.1686,0.2756 1.6913,0.3981 46.7116,10.9876 93.0587,23.4958 139.9216,33.8433 36.6037,7.8633 73.8042,13.9171 111.3231,14.2864 15.9106,0.1606 31.8392,-0.7442 47.6072,-2.8945 70.866,-5.1882 141.0242,-17.7514 210.0304,-34.4628 69.0032,-16.6913 136.9265,-37.4931 204.4621,-59.2972 53.5204,-17.46 106.9197,-35.289 160.3515,-53.0184 10.2491,-3.4151 20.515,-6.7859 30.7537,-10.2285 39.9437,-17.3028 81.0205,-31.9807 122.8705,-43.9556 0.317,-0.092 0.8583,-0.241 1.4409,-0.4069 59.2996,-16.8693 120.1393,-28.3096 181.5106,-34.1799 0.1777,-0.019 1.1925,-0.1109 1.6947,-0.1583 7.6726,-0.7262 15.3549,-1.3462 23.0417,-1.9023 0.096,-0.01 1.1458,-0.078 1.5925,-0.1092 15.9743,-1.1089 31.9749,-1.834 47.9836,-2.1915 0.1717,0 1.1972,-0.022 1.7001,-0.03 3.1883,-0.03 6.3767,-0.1097 9.547,-0.4766 12.7034,-1.2306 25.2355,-4.2258 37.1036,-8.9261 8.9612,-3.3909 17.9225,-6.7818 26.8837,-10.1727 -9.5374,-7.3187 -19.0283,-14.6985 -28.5965,-21.9768 -22.3616,-16.719 -46.9493,-30.6856 -73.3644,-39.8885 -91.3482,-42.6013 -182.2284,-86.3077 -275.1511,-125.4198 -68.9065,-29.0108 -138.9657,-55.4756 -210.6185,-76.9204 -65.9102,-19.4006 -133.1752,-34.7813 -201.4975,-42.604 -14.4162,-1.6395 -28.8707,-2.9755 -43.3509,-3.883 -0.1638,0 -0.3276,0 -0.4914,0.01 z" /><path
           id="path35"
           style="fill:#ffffff;fill-opacity:1;stroke-width:176.668;-inkscape-stroke:none"
           d="m 313.14648,5202.7676 c -9.18847,0.3983 -18.38048,0.7502 -27.57031,1.1308 4.39563,8.3034 8.73812,16.6359 13.16679,24.9212 3.18656,5.6142 7.9484,10.0705 12.62423,14.4284 1.79521,1.6572 3.35075,3.5503 5.20633,5.1445 27.37015,25.4503 58.20763,46.8307 89.86593,66.5587 24.81952,15.4526 50.18426,30.0019 75.23401,45.0735 28.31112,16.6758 55.91216,34.6113 85.12157,49.7189 96.01198,52.1442 195.0454,98.9651 297.35882,137.4172 60.98633,22.9119 123.12135,42.823 186.23525,59.0061 33.576,8.5958 67.4193,16.1597 101.487,22.5392 70.6469,13.186 142.3138,20.8983 214.1479,23.064 9.4664,0.3022 18.937,0.4301 28.4063,0.5937 106.9741,2.7269 213.9695,5.0305 320.9826,5.2676 144.6403,0.3133 289.3793,-3.1813 433.6063,-14.5686 5.4373,-0.3894 10.8377,-1.1621 16.2543,-1.7614 115.0034,-13.6618 228.9115,-35.8112 341.1696,-64.1621 66.9264,-16.8837 133.2863,-35.9749 199.1014,-56.7635 95.1575,-30.0694 189.1616,-63.7034 282.2766,-99.5774 42.797,-16.6917 85.693,-33.1639 127.9597,-51.1704 35.391,-17.6198 72.2202,-32.3042 106.8478,-51.4601 9.4673,-5.244 18.7908,-10.7671 27.7869,-16.7864 5.8057,-4.2675 11.9295,-8.2023 16.9543,-13.4226 2.665,-2.7066 5.0465,-5.7662 6.4771,-9.3138 1.156,-2.7728 1.7029,-5.7862 1.5948,-8.7888 -0.09,-1.6795 -0.3874,-3.3431 -0.8821,-4.9525 -0.3782,-1.1833 -0.8756,-2.3495 -1.4776,-3.4371 -1.2935,-2.3713 -3.0978,-4.4468 -5.2374,-6.0929 -4.8759,-3.768 -11.2636,-5.0688 -17.3212,-4.6567 -2.4565,0.096 -4.9195,-0.1279 -7.3795,-0.1434 -58.2956,-1.5013 -116.4584,4.2029 -174.3069,10.7794 -12.4187,1.4117 -24.8342,2.853 -37.2511,4.2817 -1.4052,0.1622 -3.047,0.3463 -4.5433,0.5169 -16.1755,1.8674 -32.3651,3.6104 -48.5644,5.2579 -11.4935,1.2031 -23.0014,2.2648 -34.5153,3.2525 -0.3181,0.03 -1.1964,0.1002 -1.7293,0.1456 -2.589,0.2158 -5.1779,0.4316 -7.7668,0.6474 -0.3767,0.026 -1.1969,0.095 -1.7434,0.1382 -2.5888,0.2078 -5.1776,0.4157 -7.7664,0.6235 -0.4028,0.035 -1.197,0.093 -1.7496,0.1373 -31.7136,2.4784 -63.4543,4.6233 -95.1336,7.5235 -100.2786,8.4156 -200.5007,17.5919 -300.5336,28.579 -80.2921,8.834 -160.4635,18.8202 -240.3873,30.54 -34.0485,4.9867 -68.0481,10.3058 -101.9949,15.9414 -16.4856,2.3032 -32.9697,4.6163 -49.4588,6.894 -1.9792,0.2747 -4.1609,0.5717 -6.218,0.8549 -3.4434,0.4715 -7.0442,0.9695 -10.3894,1.4244 -41.5257,5.6546 -83.089,11.0571 -124.7422,15.6914 -0.5587,0.058 -1.4583,0.1602 -2.1477,0.2352 -18.6737,2.0687 -37.3657,3.9739 -56.0749,5.6926 -0.3764,0.031 -1.196,0.1072 -1.742,0.1555 -2.1679,0.1958 -4.6508,0.4173 -6.6233,0.5972 -5.3194,0.4637 -10.6396,0.9188 -15.9609,1.3606 -0.8524,0.067 -1.9935,0.1629 -2.9568,0.2411 -6.7127,0.554 -13.4274,1.0829 -20.1428,1.6026 -0.8528,0.061 -1.9945,0.1507 -2.9582,0.2229 -6.7182,0.5131 -13.4383,1.0013 -20.159,1.4802 -0.5616,0.036 -1.4636,0.1012 -2.1557,0.1485 -12.1234,0.8505 -24.2517,1.6308 -36.3834,2.3554 -0.6372,0.033 -1.5976,0.093 -2.3588,0.1358 -24.9091,1.4615 -49.835,2.6416 -74.772,3.5049 -0.5632,0.022 -1.4662,0.049 -2.1597,0.073 -6.9947,0.2412 -13.9906,0.4444 -20.9868,0.6354 -0.3958,0.013 -1.2003,0.03 -1.7526,0.045 -7.1287,0.1862 -14.2582,0.3385 -21.388,0.4744 -0.4043,0 -1.2006,0.02 -1.7549,0.028 -4.5581,0.083 -9.1164,0.1463 -13.6748,0.2098 -0.362,7e-4 -1.2007,0.013 -1.7452,0.018 -19.9753,0.238 -39.9533,0.2454 -59.9287,0.014 -0.3873,0 -1.2006,-0.016 -1.751,-0.022 -7.1225,-0.087 -14.2446,-0.2099 -21.3662,-0.3587 -0.3788,-0.011 -1.2004,-0.028 -1.7487,-0.041 -19.9525,-0.4389 -39.8993,-1.1386 -59.8333,-2.1053 -0.3611,-0.015 -1.1992,-0.06 -1.743,-0.086 -1.9841,-0.1 -3.9682,-0.199 -5.9523,-0.2985 -0.3108,-0.021 -1.1987,-0.065 -1.731,-0.095 -14.7975,-0.7839 -29.5868,-1.7224 -44.3647,-2.8168 -0.3432,-0.023 -1.1973,-0.091 -1.7362,-0.1305 -1.9812,-0.1505 -3.9623,-0.301 -5.9435,-0.4515 -0.3015,-0.028 -1.1965,-0.096 -1.7259,-0.1395 -17.3324,-1.363 -34.6457,-2.9652 -51.9362,-4.7844 -0.7427,-0.082 -1.7902,-0.1896 -2.6499,-0.2816 -9.0838,-0.9488 -18.1586,-1.9822 -27.227,-3.068 -0.2985,-0.033 -1.1916,-0.1456 -1.7183,-0.2092 -1.9116,-0.2343 -3.8233,-0.4686 -5.7349,-0.7029 -0.2738,-0.039 -1.1904,-0.1518 -1.7114,-0.219 -1.9106,-0.2428 -3.8213,-0.4855 -5.7319,-0.7283 -0.3146,-0.038 -1.1904,-0.1555 -1.7203,-0.2241 -6.8712,-0.8891 -13.7354,-1.8309 -20.5961,-2.7973 -0.3143,-0.049 -1.1883,-0.1712 -1.7173,-0.2481 -14.2925,-2.0353 -28.5583,-4.2563 -42.7984,-6.6308 -0.2871,-0.054 -1.1833,-0.2011 -1.7044,-0.2908 -14.2407,-2.3912 -28.4506,-4.9646 -42.6315,-7.6878 -0.2846,-0.06 -1.178,-0.2302 -1.6965,-0.3325 -19.0915,-3.6973 -38.1229,-7.7021 -57.0887,-11.9975 -0.2873,-0.061 -1.1701,-0.2675 -1.6862,-0.3844 -7.165,-1.6124 -14.3033,-3.3427 -21.4599,-4.9892 -38.2461,-8.0045 -76.451,-16.2042 -114.641,-24.4721 -115.22303,-24.935 -230.43385,-50.3742 -346.38316,-71.8986 -77.72803,-14.4219 -155.80732,-27.082 -234.29191,-36.6354 -17.58745,-2.1191 -35.18668,-4.1523 -52.81381,-5.914 -42.07894,-4.1234 -84.2242,-7.9446 -126.49537,-9.3274 -0.34899,0.034 -0.69798,0.069 -1.04697,0.1035 z" /><path
           id="path36"
           style="fill:#000000;stroke-width:7.17465"
           d="m 2214.8418,2598.5078 c -24.2986,0.079 -48.4712,4.0097 -71.8809,10.3848 -26.4698,7.1808 -52.1004,17.0931 -77.3696,27.6791 -28.4447,11.9679 -56.4655,24.9103 -84.4305,37.9512 -40.2032,18.8165 -80.1546,38.1787 -119.7039,58.3358 -17.2947,8.8362 -34.5341,17.7964 -51.4295,27.379 -6.4196,3.6445 -12.6819,7.5603 -18.7892,11.7062 -35.2699,23.3928 -69.8638,47.7805 -104.6357,71.9017 -7.0295,4.8916 -14.0744,9.7611 -21.1123,14.6407 -0.4661,0.317 -1.208,0.8324 -1.7799,1.2254 -50.8582,35.1329 -102.177,69.6798 -155.2931,101.3328 -24.4031,14.5231 -49.1733,28.4474 -74.4934,41.3129 -0.2826,0.1484 -1.0709,0.5426 -1.5476,0.7852 -15.1544,7.6737 -30.502,14.9703 -46.0754,21.7558 0.012,-0.011 -1.0454,0.4495 -1.4403,0.6178 -28.495,12.3288 -57.7984,22.9852 -87.9977,30.3164 -14.4521,3.4838 -29.1078,6.2085 -43.9045,7.6996 -24.2488,0.8837 -48.6895,-1.3297 -72.1829,-7.5249 -0.9089,-0.2379 -1.8153,-0.4846 -2.7227,-0.728 0.019,0.01 -1.0959,-0.3044 -1.5089,-0.4184 -21.6204,-6.0703 -42.2014,-15.3358 -61.989,-25.862 -21.8775,-11.6046 -43.0198,-24.5222 -64.6379,-36.5916 -24.7298,-13.8522 -50.10819,-26.6748 -76.57339,-36.893 -10.76563,-4.0915 -21.74441,-7.6464 -32.91382,-10.4635 -17.32777,-4.3641 -35.22226,-6.7251 -53.10742,-6.1758 -18.7455,0.5336 -37.31395,4.1807 -55.14143,9.9096 -5.77433,1.8294 -11.46397,3.9173 -17.12734,6.0584 -8.42269,2.4048 -15.84739,7.281 -22.83577,12.4213 -10.36502,7.6992 -20.02349,16.2923 -29.58693,24.9516 -17.96283,16.3626 -35.2934,33.4019 -52.51064,50.542 -34.31348,34.2984 -67.90035,69.3143 -101.30525,104.4954 -52.89632,55.812 -105.17195,112.21 -157.19421,168.8376 -67.91366,73.9438 -135.34831,148.3262 -202.50663,222.9557 -31.33248,34.8171 -62.57621,69.714 -93.77373,104.6519 -5.42806,5.5733 -10.99563,11.268 -16.35792,16.7449 -8.69634,8.858 -17.41152,17.6974 -26.16406,26.5 -0.87316,0.8816 -1.92832,1.9372 -2.87144,2.8858 -7.19278,7.2344 -14.413307,14.4412 -21.638326,21.6435 -0.88256,0.8722 -1.939117,1.9264 -2.888563,2.8686 -74.579699,74.0961 -150.997979,146.3139 -228.023611,217.8549 -52.9099,49.1453 -106.07811,97.9766 -159.12161,146.9708 -77.01906,71.1218 -153.75148,142.5737 -228.89524,215.6822 -15.53546,15.0992 -30.9751,30.2984 -46.38113,45.5292 -16.77731,14.8646 -34.78909,28.2494 -52.9136,41.4085 -40.46534,29.2834 -82.05287,57.1718 -120.33378,89.3617 -22.02532,18.5602 -43.02709,38.5487 -60.84343,61.248 -15.19246,19.3892 -27.98363,40.9529 -35.55412,64.4868 -4.0014,12.4165 -6.57289,25.3254 -7.28791,38.3595 -0.25331,11.4463 -1.65388,22.8426 -1.62793,34.2992 -0.0719,14.1313 1.76714,28.44 6.97483,41.6492 5.57852,14.3536 15.11559,27.0769 27.09997,36.7167 12.55144,10.2129 27.41617,17.2166 42.74897,22.1524 5.99737,1.8437 11.95709,3.8292 17.74957,6.2504 17.24828,7.1761 33.40093,16.7314 48.86193,27.1601 20.43056,13.8473 39.63997,29.4165 58.17003,45.697 15.03907,13.2432 29.58297,27.0398 43.8125,41.1466 0.15971,0.1542 0.79686,0.7934 1.14062,1.1347 16.14294,16.0999 31.8759,32.6075 47.28711,49.4082 0.16534,0.1753 0.80879,0.8857 1.15844,1.2673 9.24624,10.1037 18.37253,20.3167 27.41188,30.6058 0.22297,0.2497 0.79084,0.9034 1.14601,1.3079 37.089,42.3195 72.62949,85.9725 107.3506,130.2479 40.22498,51.3418 79.30399,103.5733 117.77281,156.2394 42.76888,58.5873 84.76988,117.7311 126.4044,177.1286 3.58931,5.1368 7.30367,10.4268 10.87998,15.5421 13.49886,19.3191 26.98306,38.6484 40.42276,58.0087 22.97702,33.0908 45.995532,66.3697 68.899321,99.5418 53.765205,77.8574 107.418177,155.793 161.670039,233.3122 44.44024,63.4557 89.28981,126.6319 135.21811,189.0216 36.07194,48.9488 72.80581,97.4246 110.93596,144.7934 25.8416,32.049 52.325,63.5979 80.00952,94.0758 20.24641,22.2576 41.15424,43.9395 63.20187,64.4245 5.65037,5.2181 11.34143,10.4037 17.19248,15.3918 5.79774,3.7122 11.58876,7.4347 17.37074,11.1713 0.50079,0.3294 1.28654,0.8349 1.89662,1.2318 54.11675,35.0151 107.81013,70.9969 165.18803,100.5591 34.54325,17.8228 70.38905,33.2747 107.54258,44.7907 4.77243,1.513 9.59484,2.8682 14.3881,4.3066 19.92206,7.1573 39.69188,14.7353 59.70465,21.6399 36.69688,12.7578 74.01194,23.7189 111.73769,32.996 56.48921,13.9377 113.78621,24.4089 171.34121,32.83 63.9729,9.3248 128.3042,16.0544 192.7449,21.1533 82.4412,6.4911 165.0793,10.2721 247.7442,12.3377 27.3247,0.667 54.6537,1.1877 81.9855,1.4389 45.1625,0.2091 90.3075,-1.9342 135.3353,-5.3025 62.8379,-4.7462 125.4693,-12.0119 187.8367,-20.9959 96.4252,-13.9358 192.2276,-32.0579 287.2449,-53.5642 108.3279,-24.5399 215.6391,-53.5483 321.6306,-86.7534 93.9041,-29.4256 186.7699,-62.1709 278.3244,-98.2508 120.5745,-47.5366 238.8874,-100.8565 354.0989,-160.2354 128.2212,-66.076 252.6131,-139.6681 371.687,-221.1056 60.1556,-41.1374 118.9374,-84.2864 176.1395,-129.4424 34.8051,-27.4896 69.0287,-55.7162 102.6096,-84.6889 34.2838,-29.567 67.8625,-59.9491 100.7794,-91.0293 87.2702,-81.9617 172.9428,-165.6253 256.9449,-250.9334 81.0332,-82.286 160.5275,-166.0816 238.7002,-251.0877 81.0268,-88.0968 160.6586,-177.4684 239.2991,-267.6995 47.041,-53.9713 93.7102,-108.2654 140.1364,-162.7663 18.3902,-21.4589 37.7019,-42.1064 57.2379,-62.5205 8.7016,-9.118 17.5101,-18.1349 26.098,-27.3607 5.7166,-6.2678 11.2772,-12.676 17.021,-18.9194 4.9302,-5.4113 9.9159,-10.7719 14.9308,-16.1047 0.2444,-0.264 0.8243,-0.8731 1.1971,-1.2693 17.845,-18.9237 36.1391,-37.4169 54.0431,-56.284 17.9313,-18.8936 35.3838,-38.2493 52.0587,-58.2635 1.5222,-1.8103 3.0532,-3.6296 4.5879,-5.4566 0.245,-0.2948 0.7749,-0.9172 1.129,-1.3374 9.1773,-10.8648 18.5769,-21.5475 28.3395,-31.8911 4.4907,-4.6916 9.0004,-9.3787 13.8381,-13.7168 7.0115,-3.0177 12.8311,-8.1919 17.8276,-13.8659 7.1376,-8.0904 13.2877,-16.9871 19.2133,-25.9847 8.4593,-12.9454 16.3302,-26.2855 23.3974,-40.0429 10.5123,-20.5713 18.774,-42.4575 22.7552,-65.2718 3.7315,-21.0735 3.7016,-42.7331 0.6039,-63.8846 -2.6002,-18.1308 -7.2009,-35.9294 -12.9204,-53.3134 -5.135,-15.2668 -11.694,-30.2124 -21.0869,-43.3715 -9.1329,-12.8879 -21.0878,-23.7572 -34.7901,-31.6168 -15.2065,-8.8109 -32.1761,-14.0827 -49.2969,-17.6894 -21.0671,-4.3712 -42.5236,-6.406 -63.9452,-8.0988 -21.9,-1.9542 -43.7116,-4.999 -65.2677,-9.3446 -8.5335,-1.7779 -17.054,-3.7186 -25.3522,-6.4098 -2.6864,-0.8531 -5.2439,-2.0386 -7.7459,-3.3251 -245.249,-119.6363 -490.5446,-239.1883 -734.7824,-360.8812 -21.4566,-10.6889 -42.9012,-21.4018 -64.3421,-32.1222 -108.2093,-54.1445 -216.2901,-108.785 -323.9766,-164.0524 -102.9814,-52.852 -205.6584,-106.2987 -307.9302,-160.5117 -116.3649,-61.672 -232.2039,-124.3391 -347.3761,-188.2118 -19.8998,-11.0354 -39.8344,-22.1441 -59.6566,-33.2338 -19.9821,-11.1675 -39.9154,-22.4227 -59.8744,-33.6308 -29.6503,-15.6292 -57.9083,-33.7548 -85.4911,-52.7585 -30.6185,-21.1405 -60.398,-43.4661 -89.8865,-66.1473 -30.2525,-23.2836 -60.182,-46.9827 -90.1468,-70.6342 -45.9209,-36.2874 -91.9165,-72.4939 -138.7786,-107.564 -65.0708,-48.7103 -131.841,-95.3025 -201.6963,-136.931 -14.9915,-8.9017 -30.0755,-17.6556 -45.4049,-25.9642 -4.4958,-2.3768 -8.9857,-4.7905 -13.6666,-6.7867 -2.4325,-1.0073 -4.9243,-1.8602 -7.4102,-2.724 -0.3171,-0.1171 -1.1042,-0.386 -1.6023,-0.5692 -27.0471,-9.5734 -54.2544,-18.8423 -82.1072,-25.8138 -23.2326,-5.783 -47.0414,-9.7095 -71.0254,-9.9617 -1.4151,-0.017 -2.8303,-0.021 -4.2456,-0.017 z m -11.7051,137.1192 c 15.5034,0.2734 30.7421,3.6598 45.6646,7.6311 14.7262,4.0007 29.2552,8.6919 43.7002,13.6023 19.0024,6.5151 37.0645,15.462 54.6447,25.1157 27.4273,15.192 53.6875,32.3871 79.4602,50.2144 23.4173,16.2411 46.4149,33.0791 69.1905,50.206 0.5051,0.3855 1.2777,0.9635 1.8854,1.4229 1.451,1.0923 3.0721,2.3176 4.4173,3.3271 29.9975,22.6668 59.6529,45.7813 89.2438,68.975 62.8334,49.3052 125.3688,98.9999 189.0004,147.2769 59.7736,45.3616 120.4751,89.555 183.0549,130.9821 44.2383,29.2627 89.4139,57.1521 135.8996,82.712 50.6231,27.8044 102.8338,52.9022 156.9829,73.0891 8.4184,3.1372 16.8965,6.113 25.3853,9.0506 7.3487,2.9785 14.4917,6.4321 21.6822,9.7672 26.9683,12.7349 53.7268,25.9072 80.4872,39.0709 3.9558,1.9525 7.9115,3.905 11.8672,5.8574 1.5127,0.7538 3.2256,1.5988 4.8152,2.3876 85.5523,42.3543 170.8469,85.2257 256.1149,128.1489 120.2175,60.5516 240.3057,121.3592 360.3667,182.2203 92.9997,47.1481 185.9681,94.3571 279.0092,141.4226 101.7968,51.5426 203.5358,103.1916 305.3747,154.65 81.5114,41.1369 163.0693,82.1905 245.1729,122.1359 16.3804,7.9553 32.7621,15.9098 49.2116,23.7208 14.8144,6.7376 30.3444,11.7576 46.007,16.1057 15.728,4.3192 31.6841,7.8852 47.8394,10.1753 8.7694,1.1792 17.5719,2.0991 26.3323,3.3494 13.7224,1.8911 27.4657,3.9345 40.8827,7.4457 6.6299,1.797 13.316,3.9112 19.0922,7.728 4.7503,3.2243 8.0405,8.0726 10.8516,12.9793 3.1835,5.6079 5.8679,11.4792 8.6613,17.286 1.5556,3.4319 3.2652,6.8354 4.2078,10.5004 -0.4885,2.4117 -1.4471,4.7055 -2.3366,6.9926 -2.9424,7.0532 -6.2985,13.9243 -9.5919,20.8179 -5.6697,11.6656 -12.8291,22.5427 -20.4908,32.9844 -7.1505,9.6155 -14.7332,18.975 -23.4421,27.2344 -5.6651,5.0483 -11.1449,10.3113 -16.2304,15.9473 -8.2066,9.02 -15.5412,18.7943 -22.3944,28.8701 -7.0449,9.7683 -14.6975,19.0934 -22.7602,28.0374 -16.4762,18.1931 -34.6108,34.7693 -52.4806,51.5627 -19.7992,18.5409 -39.3885,37.3153 -58.3383,56.7275 -21.3148,21.7732 -41.944,44.2104 -62.0493,67.1031 -25.9071,29.2606 -51.8859,58.4574 -77.9108,87.6132 -1.1703,1.3132 -2.4887,2.7829 -3.716,4.1563 -65.1476,72.9028 -130.7027,145.4425 -196.7919,217.4933 -71.9783,78.4652 -144.5759,156.3656 -218.082,233.4025 -49.2458,51.6068 -98.9051,102.8208 -149.1425,153.4635 -0.6994,0.7085 -1.5977,1.6081 -2.3735,2.39 -11.4237,11.5092 -22.8839,22.9821 -34.3707,34.4284 -0.7085,0.6993 -1.608,1.5976 -2.39,2.3734 -47.9662,47.7111 -96.5052,94.8554 -146.0475,140.9313 -0.5187,0.4853 -1.271,1.1789 -1.8793,1.7442 -38.6964,35.9168 -78.072,71.1893 -118.7669,104.9681 -5.8863,4.9141 -11.8532,9.75 -17.3298,15.1274 -9.36,8.8081 -18.8182,17.5117 -28.3345,26.1505 -0.2687,0.2471 -0.8907,0.8053 -1.2947,1.1715 -15.5822,14.0973 -31.3582,27.9802 -47.3127,41.6547 -0.3428,0.287 -0.9637,0.823 -1.413,1.2054 -6.0942,5.2194 -12.2201,10.4018 -18.3644,15.5622 -0.2212,0.1788 -0.8922,0.7431 -1.2832,1.0683 -34.5545,28.9336 -69.9204,56.8928 -105.9375,83.9825 -0.2744,0.2009 -0.9612,0.7195 -1.3936,1.0422 -68.6718,51.5567 -139.7585,99.8652 -212.5986,145.3308 -0.2782,0.1673 -1.0201,0.6332 -1.4761,0.915 -36.6286,22.8288 -73.7127,44.9243 -111.1847,66.34 -75.1512,42.9274 -151.8726,83.0916 -229.8314,120.6747 -42.821,20.6373 -86.0211,40.4864 -129.5488,59.5879 -1.4247,0.6186 -3.055,1.3335 -4.5588,1.9891 -49.5788,21.6737 -99.6003,42.3322 -149.9978,62.0265 -13.6795,5.3323 -27.5242,10.6571 -41.3134,15.8658 -1.8187,0.6873 -3.6374,1.3746 -5.4562,2.0619 -0.4929,0.1809 -1.3114,0.4914 -1.9291,0.722 -12.0025,4.5144 -24.03,8.9623 -36.0728,13.3679 -0.3755,0.1319 -1.1287,0.4097 -1.6487,0.5974 -2.5866,0.9416 -5.37,1.95 -7.8337,2.8499 -9.54,3.4519 -19.0915,6.8716 -28.6543,10.2597 -0.3798,0.1372 -1.1324,0.3993 -1.6548,0.5843 -41.2151,14.5658 -82.6699,28.4518 -124.3355,41.6735 -0.3249,0.099 -1.1453,0.3603 -1.6602,0.5214 -26.1,8.2606 -52.2427,16.237 -78.5269,23.9451 -1.6061,0.4698 -3.4343,1.0092 -4.9027,1.4359 -9.1829,2.6762 -18.3749,5.3212 -27.5762,7.9336 -0.432,0.126 -1.2195,0.3445 -1.7876,0.506 -36.9162,10.4493 -73.9927,20.3333 -111.2222,29.6053 -0.3353,0.079 -1.1657,0.2875 -1.6908,0.4161 -3.6232,0.8951 -7.2465,1.7903 -10.8697,2.6855 -0.3039,0.078 -1.1664,0.284 -1.6847,0.4113 -3.6266,0.8811 -7.2532,1.7622 -10.8798,2.6433 -0.328,0.075 -1.1678,0.2787 -1.692,0.4029 -15.3537,3.6896 -30.7309,7.281 -46.1341,10.7573 -0.5863,0.1275 -1.4969,0.3339 -2.2076,0.4917 -41.1476,9.2436 -82.4727,17.7053 -123.9663,25.2485 -0.3435,0.058 -1.1817,0.2123 -1.7148,0.3072 -37.8209,6.8479 -75.7827,12.926 -113.8691,18.101 -0.2983,0.043 -1.1898,0.1594 -1.7158,0.2306 -47.2031,6.3621 -94.6038,11.3366 -142.1368,14.4295 -22.6189,1.4589 -45.2659,2.503 -67.9267,3.0079 -0.3704,0.01 -1.2005,0.025 -1.7469,0.038 -5.048,0.1126 -10.0968,0.1829 -15.1457,0.2438 -0.2865,-7e-4 -1.2002,0.01 -1.7277,0.014 -12.4518,0.1291 -24.9067,0.028 -37.356,-0.1604 -5.4637,0.7037 -10.9799,0.7854 -16.4745,1.082 -0.8151,0.037 -2.0792,0.091 -2.614,0.1175 -1.902,0.074 -4.1616,0.1674 -5.8418,0.2301 -1.9368,0.069 -3.8735,0.1383 -5.8102,0.2074 -0.4042,0.017 -1.2,0.04 -1.7541,0.059 -36.4774,1.1781 -72.9783,1.53 -109.4732,1.3724 -9.3731,-0.044 -18.7459,-0.1297 -28.1184,-0.2423 -0.6553,-0.01 -1.6285,-0.021 -2.4089,-0.032 -8.1389,-0.1131 -16.2774,-0.2535 -24.4154,-0.4174 -1.6561,-0.031 -3.5326,-0.073 -5.2734,-0.1085 -5.6405,-0.1148 -11.2799,-0.2761 -16.9199,-0.413 -0.345,-0.014 -1.2002,-0.035 -1.7407,-0.052 -11.5152,-0.3169 -23.0286,-0.6961 -34.5406,-1.1143 -0.2709,-0.01 -1.1527,-0.045 -1.6582,-0.064 -16.4569,-0.6366 -32.9099,-1.3765 -49.3554,-2.2578 -0.378,-0.018 -1.199,-0.065 -1.7465,-0.095 -30.5468,-1.6462 -61.0694,-3.7523 -91.5485,-6.3701 -0.4859,-0.046 -1.3287,-0.1164 -1.9514,-0.1718 -44.0742,-3.8373 -88.0619,-8.7636 -131.8327,-15.216 -2.6042,-0.3829 -5.2065,-0.778 -7.8096,-1.1688 -0.363,-0.052 -1.1869,-0.1819 -1.7264,-0.2638 -1.1163,-0.1729 -2.5084,-0.383 -3.4552,-0.5331 -17.4487,-2.712 -34.8577,-5.6812 -52.211,-8.9492 -0.351,-0.064 -1.1797,-0.2238 -1.7137,-0.3243 -1.1612,-0.2207 -2.3224,-0.4414 -3.4836,-0.662 -0.2512,-0.053 -1.1775,-0.23 -1.6886,-0.3306 -6.1543,-1.1939 -12.3002,-2.4306 -18.4383,-3.7046 -0.3401,-0.067 -1.1753,-0.2458 -1.7051,-0.3557 -1.108,-0.2324 -2.2161,-0.4647 -3.3242,-0.697 -0.3076,-0.07 -1.1739,-0.2513 -1.6959,-0.3641 -18.0906,-3.8663 -36.1131,-8.0736 -53.9839,-12.8583 -11.3699,-3.2017 -22.7381,-6.4092 -34.0917,-9.6683 -1.5244,-0.4419 -3.2674,-0.9404 -4.8758,-1.4041 -70.6171,-20.3349 -140.87631,-42.2694 -209.22221,-69.381 -56.43941,-22.4277 -111.60918,-48.4279 -163.43623,-80.1893 -10.7726,-6.6476 -21.51282,-13.3772 -31.70869,-20.8928 -18.71167,-13.7084 -36.14078,-29.0912 -52.79913,-45.211 -26.08328,-25.2922 -50.27757,-52.4583 -73.54587,-80.3402 -30.11032,-36.1692 -58.58307,-73.6692 -86.29792,-111.6949 -1.84013,-2.5345 -3.68026,-5.069 -5.52038,-7.6035 -0.22904,-0.3101 -0.70305,-0.9733 -1.02586,-1.4187 -5.57649,-7.7122 -11.11929,-15.4488 -16.63821,-23.2024 -0.27769,-0.3975 -0.77129,-1.0882 -1.1317,-1.598 -21.9484,-30.8955 -43.46027,-62.1005 -64.74525,-93.4566 -0.5351,-0.7985 -1.23287,-1.8223 -1.83046,-2.7073 -2.10144,-3.1041 -4.20287,-6.2082 -6.30431,-9.3123 -0.81388,-1.199 -1.75282,-2.5972 -2.61478,-3.8728 -1.83544,-2.7208 -3.67087,-5.4416 -5.50631,-8.1623 -0.67,-1.0033 -1.48709,-2.2136 -2.21363,-3.2965 C 248.11568,5797.6605 206.08914,5733.45 163.9616,5669.3091 110.63124,5588.0591 57.236232,5506.8461 2.6489513,5426.4327 -67.123613,5323.6547 -138.76217,5222.0931 -214.27679,5123.4373 c -61.75685,-80.64 -126.08457,-159.3691 -194.25932,-234.6843 -61.21493,-67.5748 -125.52961,-132.4369 -194.03704,-192.6456 -33.64886,-29.5717 -68.31803,-57.9926 -104.10654,-84.9394 5.27641,-6.8052 11.51297,-12.7928 17.87153,-18.5724 9.18623,-8.218 18.86933,-15.8621 28.69584,-23.2955 12.43849,-9.3451 25.11615,-18.367 37.54105,-27.7304 52.69705,-39.3341 103.99532,-80.5139 154.40851,-122.7265 63.65663,-53.3343 125.87037,-108.3764 186.99721,-164.587 32.35358,-29.7607 64.35385,-59.9045 96.03647,-90.3784 48.80298,-46.7342 97.500995,-93.5778 146.191638,-140.429 14.672481,-14.1019 29.3483859,-28.2022 44.2597076,-42.0523 0.2846738,-0.2573 0.8817272,-0.8151 1.2859864,-1.1874 0.9202962,-0.8516 1.8405924,-1.7032 2.7608886,-2.5548 0.2401563,-0.2253 0.8839134,-0.8125 1.2788074,-1.1766 3.616196,-3.3301 7.254342,-6.6363 10.904786,-9.9289 0.53127,-0.4723 1.288795,-1.1594 1.906911,-1.7142 23.61608,-21.2545 47.392942,-42.3302 71.060344,-63.5264 9.387831,-8.4063 18.808331,-16.7782 28.149091,-25.2356 7.80174,-7.6181 15.25409,-15.582 22.83397,-23.4184 28.90279,-30.1063 57.76321,-60.254 86.91023,-90.1245 27.31452,-27.9177 53.59155,-56.8303 79.36001,-86.1752 48.04217,-54.6634 94.40561,-110.7734 142.32673,-165.5417 17.91266,-20.4667 36.06708,-40.727 54.73006,-60.514 0.20605,-0.2096 0.82637,-0.8705 1.19154,-1.2535 11.67782,-12.3577 23.59895,-24.4835 35.80335,-36.3216 6.70666,-6.5796 13.01268,-13.5496 19.44471,-20.394 16.05352,-17.3237 31.96027,-34.7821 47.94808,-52.1656 26.85739,-29.2883 53.83954,-58.4625 81.05568,-87.418 0.7585,-0.7983 1.69249,-1.7945 2.51844,-2.6689 19.7038,-20.9197 39.74349,-41.857 59.93416,-62.4514 0.18026,-0.1755 0.8035,-0.8133 1.15544,-1.168 22.31874,-22.6449 44.87158,-45.0853 68.46989,-66.4046 10.45359,-9.4087 21.09784,-18.6484 32.49639,-26.9052 5.75316,-4.0119 11.76065,-7.6422 17.75525,-11.2776 3.60531,-2.1097 7.24405,-4.2314 11.16404,-5.7058 1.54568,-0.6133 3.22346,-0.5634 4.83923,-0.3252 4.92492,0.6346 9.70065,2.0652 14.47744,3.374 10.08741,2.8774 20.11484,5.9982 29.92019,9.7358 -0.068,-0.02 1.05499,0.4082 1.44728,0.5614 19.00249,7.2865 37.16374,16.5861 54.79692,26.7081 5.50461,3.1508 10.96389,6.3803 16.40419,9.6407 0.3,0.1763 1.0289,0.619 1.4931,0.8974 21.3553,12.851 42.7001,26.0878 65.0937,37.2124 23.6007,11.8122 48.4537,21.2116 74.1375,27.3518 33.9048,8.1696 68.9571,10.8499 103.7634,9.8948 5.2512,-0.1341 10.5089,-0.2892 15.7296,-0.9081 41.1517,-4.1536 81.8492,-12.8146 121.1054,-25.846 39.0362,-12.9102 76.5917,-30.0411 112.5633,-49.9005 47.2457,-26.025 91.8047,-56.5469 135.9601,-87.4331 20.3603,-14.2156 40.6552,-28.5257 61.1403,-42.5617 0.2977,-0.1971 0.9923,-0.6761 1.442,-0.9812 32.9872,-22.5747 66.5605,-44.3558 101.4132,-63.9577 3.5683,-1.9104 6.8617,-4.2748 10.2795,-6.4337 5.4535,-3.5302 10.9228,-7.0359 16.3985,-10.5317 0.3176,-0.197 1.0139,-0.6431 1.4766,-0.9355 34.8759,-22.1867 70.2437,-43.6079 106.1764,-64.0417 24.7996,-14.0692 49.8484,-27.7355 75.5291,-40.138 9.3073,-4.4738 18.7466,-8.6764 28.3483,-12.4799 25.2304,-10.4249 50.2096,-21.4461 75.0968,-32.6621 17.0958,-7.7066 33.9993,-16.0592 51.9864,-21.5394 9.0244,-2.7661 18.3459,-4.6797 27.79,-5.123 2.1852,-0.1071 4.3735,-0.1454 6.5612,-0.1155 z m 99.3613,909.3691 c -5.5286,0.059 -11.0572,0.1185 -16.5859,0.1777 0.2624,0.8236 -0.695,0.5104 -1.1922,0.6316 -21.1187,1.576 -42.0977,5.5287 -62.1825,12.2923 -55.8591,18.1278 -111.3298,37.4982 -166.0319,58.88 -28.9077,11.2704 -57.5821,23.1262 -86.4215,34.5683 -23.4203,9.2742 -47.0472,18.0428 -70.9785,25.913 -0.2561,0.08 -1.1407,0.3726 -1.6385,0.5343 -2.5465,0.8385 -5.099,1.6585 -7.6506,2.4813 -0.2844,0.094 -1.1438,0.3641 -1.649,0.5257 -8.7729,2.7962 -17.5775,5.4926 -26.4057,8.1091 -0.3369,0.096 -1.152,0.3385 -1.6721,0.4906 -7.2795,2.1477 -14.578,4.231 -21.8884,6.2711 -0.2825,0.081 -1.1571,0.3193 -1.667,0.4606 -30.6125,8.4868 -61.4444,16.161 -92.3604,23.4574 -0.3204,0.071 -1.1692,0.2728 -1.6922,0.3941 -4.0101,0.9377 -8.0203,1.8753 -12.0304,2.8129 -0.3728,0.09 -1.1699,0.2703 -1.7052,0.3948 -23.7043,5.4834 -47.4488,10.7982 -71.2558,15.82 -0.5146,0.1042 -1.3707,0.2868 -2.0162,0.4211 -1.7283,0.3622 -3.4566,0.7245 -5.1849,1.0868 -0.3926,0.084 -1.1758,0.2434 -1.7179,0.3564 -9.0241,1.8749 -18.0594,3.6962 -27.1024,5.4775 -0.377,0.078 -1.1785,0.2304 -1.7179,0.3368 -1.831,0.3572 -3.6621,0.7143 -5.4931,1.0714 -0.3592,0.065 -1.1794,0.2256 -1.7151,0.3272 -1.8326,0.3512 -3.6652,0.7024 -5.4978,1.0537 -0.3775,0.074 -1.1798,0.223 -1.72,0.3258 -6.5665,1.2487 -13.143,2.4426 -19.7214,3.6273 -0.3618,0.068 -1.1822,0.2101 -1.7196,0.3064 -16.1459,2.8763 -32.331,5.5355 -48.5558,7.928 -0.2883,0.038 -1.1879,0.1715 -1.7111,0.2463 -1.4808,0.2153 -3.3885,0.489 -4.6028,0.6679 -10.4707,1.4841 -20.9581,2.8509 -31.4615,4.0838 -0.2785,0.028 -1.1512,0.1322 -1.6582,0.1895 -23.5177,2.6984 -47.162,4.6519 -70.8437,5.5156 -0.1568,0.01 -1.1345,0.038 -1.6094,0.055 -32.3019,1.102 -64.7097,0.07 -96.8066,-3.832 -0.3824,-0.044 -1.1916,-0.1477 -1.7374,-0.2144 -16.5612,-2.0453 -33.0263,-4.8532 -49.3447,-8.3384 -0.063,-0.019 -1.1198,-0.2438 -1.5518,-0.3393 -0.8219,-0.1786 -1.6438,-0.3571 -2.4657,-0.5357 -0.069,-0.012 -1.1187,-0.2507 -1.5514,-0.3469 -16.79,-3.7568 -33.43,-8.1906 -49.8568,-13.3074 -0.09,-0.034 -1.0945,-0.348 -1.5208,-0.485 -7.6968,-2.4285 -15.3301,-5.0535 -22.9363,-7.7513 -0.2755,-0.095 -1.1298,-0.4053 -1.6276,-0.5831 -14.4868,-5.2236 -28.8511,-10.8243 -42.8627,-17.2236 -7.0057,-3.19 -13.7004,-7.0033 -20.5756,-10.4563 -17.018,-8.6974 -34.1995,-17.0697 -51.3811,-25.4378 -25.7449,-12.5116 -51.6097,-24.774 -77.5108,-36.9585 -2.77423,-1.3181 -5.54305,-2.6475 -8.31171,-3.9774 -0.34321,-0.162 -1.08111,-0.5225 -1.57542,-0.7605 -4.5374,-2.1885 -9.06248,-4.4025 -13.58278,-6.6262 -0.34894,-0.1676 -1.07649,-0.5319 -1.57037,-0.7748 -6.19555,-3.0582 -12.37276,-6.1534 -18.53315,-9.2819 -0.34933,-0.1836 -1.06939,-0.546 -1.56063,-0.798 -15.50573,-7.9051 -30.92243,-15.9896 -46.15031,-24.4188 -0.31324,-0.1786 -1.04877,-0.5846 -1.52375,-0.8503 -8.76319,-4.8979 -17.51388,-9.8434 -25.91223,-15.3508 -10.03469,-6.6737 -19.81455,-13.8135 -30.53398,-19.3782 -7.74289,-3.9881 -16.32351,-6.7202 -25.10386,-6.6072 -10.37614,0.02 -20.59299,4.109 -28.36421,10.9382 -6.19537,5.3406 -10.95334,12.0681 -15.62653,18.7173 -5.47606,7.978 -10.48806,16.3504 -14.07997,25.3592 -2.77539,7.0896 -4.08925,14.9269 -2.62433,22.4706 1.39786,7.9329 5.50956,15.1089 10.50839,21.3196 7.43271,9.1915 16.24893,17.1359 25.16159,24.8547 17.487,14.9853 35.96871,28.7562 54.62671,42.2372 6.53936,4.6975 13.09405,9.3742 19.72217,13.946 -6.63596,8.3596 -14.38705,15.7447 -22.2176,22.966 -9.67926,8.784 -19.76272,17.1068 -29.56965,25.7457 -40.65485,35.3952 -80.34607,71.8737 -120.38289,107.9614 -59.26712,53.4197 -119.41822,106.1535 -184.49133,152.4727 -16.3908,11.6611 -33.06706,22.9286 -50.10016,33.6308 -6.08754,3.5388 -12.14371,7.1308 -18.13607,10.8293 -18.97168,11.6666 -37.55203,23.961 -55.89053,36.5965 -14.09821,9.722 -27.98595,19.752 -41.56168,30.1924 -16.69359,12.5426 -33.82969,24.5123 -51.53191,35.5912 -5.9065,3.6571 -11.84562,7.3008 -18.11195,10.3152 -9.93048,4.5131 -19.42771,9.905 -28.82754,15.4208 -17.80076,10.55 -35.14377,21.8702 -51.98728,33.8893 -16.0553,11.1922 -32.80886,21.3612 -49.99543,30.7164 -4.56533,2.5275 -9.13065,5.055 -13.69598,7.5824 -0.35395,0.1902 -1.05229,0.5783 -1.53806,0.8442 -9.79256,5.3949 -19.74379,10.8584 -29.47365,16.1441 -2.60222,1.4102 -5.20443,2.8203 -7.80664,4.2305 -0.7221,0.3854 -1.701958,0.9175 -2.523045,1.3592 -53.580601,28.8939 -107.7673935,56.7593 -163.3954,81.5271 -7.004556,3.1156 -14.030496,6.183 -21.075701,9.2055 -0.295617,0.1204 -1.104765,0.4699 -1.597355,0.6782 -8.621908,3.6824 -17.276359,7.2885 -25.961239,10.8198 -0.30047,0.1174 -1.11338,0.4492 -1.61037,0.6489 -9.95045,4.0238 -19.94237,7.9445 -29.9658,11.7828 -0.20559,0.073 -1.12136,0.424 -1.60124,0.6044 -13.62786,5.1876 -27.32139,10.2021 -41.06673,15.0694 -15.84511,5.6291 -31.86608,11.0152 -47.839,16.3729 -9.20416,3.52 -17.69614,8.644 -25.79791,14.2007 -14.61189,10.1266 -27.72292,22.533 -38.15119,36.9593 -7.18829,10.0752 -12.71376,21.4649 -15.24816,33.624 -2.98269,13.8964 -2.01247,28.4337 1.59434,42.1167 4.13027,15.84 11.2487,30.7023 19.05877,45.0209 8.29364,15.139 17.63979,29.663 26.98033,44.1683 7.77306,12.2798 15.45873,24.6321 22.37571,37.4198 0.90877,1.3141 0.78426,2.9925 1.42693,4.4209 0.89185,2.8425 2.79563,5.1774 4.33467,7.6819 5.951,9.2824 12.41898,18.2247 19.25113,26.877 16.90701,21.4431 35.7701,41.237 54.81552,60.7706 18.36583,18.8155 37.05943,37.3224 54.85511,56.6854 0.89518,0.9804 1.79036,1.9609 2.68555,2.9414 0.13539,0.1564 0.80283,0.8899 1.14393,1.2694 12.766233,14.1403 25.046183,28.803 35.535711,44.7339 1.587977,2.395 3.068523,4.868 4.689429,7.2363 39.097602,42.9351 78.619175,85.5047 119.498511,126.755 28.930466,29.1672 58.549809,57.6891 89.629849,84.5697 24.97925,21.5737 50.98906,42.0175 78.53739,60.2261 88.60713,59.514 178.46497,117.3029 271.33016,169.9881 61.77251,35.0572 124.8627,67.8281 189.37871,97.551 65.81382,30.3415 133.08986,57.5125 201.53211,81.3412 80.80546,28.1459 163.1875,51.6894 246.4816,71.2419 3.2462,0.7633 6.4902,1.5369 9.7863,2.0582 28.0892,5.0453 56.36,9.0961 84.755,11.9722 42.8478,4.3746 85.8839,6.5371 128.9114,8.1795 54.0239,2.0052 108.077,3.086 162.1274,4.0813 11.3703,0.1736 22.7402,0.3878 34.1051,0.7853 63.2243,1.9362 126.4409,4.179 189.6819,5.5063 58.7454,1.2242 117.5209,1.5452 176.2653,0.084 54.303,-1.3385 108.5687,-4.1998 162.7091,-8.6149 97.4473,-7.946 194.4358,-20.887 290.871,-36.8866 5.0466,-0.7089 9.9177,-2.2508 14.8613,-3.438 18.6526,-4.7511 37.3339,-9.389 56.0204,-14.0055 1.1036,-0.2742 2.4601,-0.6048 3.6609,-0.9007 83.4004,-20.5314 167.0403,-40.1377 249.9886,-62.458 70.2874,-18.8923 140.085,-39.7787 208.574,-64.457 9.1883,-3.2955 18.3376,-6.7033 27.4849,-10.1067 17.7861,-4.8916 35.0487,-11.4655 52.1985,-18.2116 23.8584,-9.4521 47.3844,-19.7188 71.231,-29.1994 19.4992,-7.5397 38.7011,-15.8344 57.6334,-24.6988 38.2202,-17.8252 75.4474,-37.6736 112.6218,-57.5612 33.0982,-17.7244 66.1491,-35.5637 99.8745,-52.0771 1.5776,-0.7817 3.1369,-1.597 4.5411,-2.6681 7.9079,-5.464 15.9667,-10.7106 24.1834,-15.6985 -0.056,0.041 0.971,-0.5806 1.3333,-0.7956 12.238,-7.3919 24.9443,-13.987 37.9304,-19.961 1.5963,-0.7447 3.202,-1.4693 4.8028,-2.2043 0.1752,-0.074 1.0924,-0.4916 1.555,-0.6986 15.8697,-7.1273 31.9042,-13.8957 47.57,-21.4694 13.4245,-6.4211 26.6026,-13.3443 39.6289,-20.5357 130.3705,-71.159 262.5589,-138.9026 394.3673,-207.3387 52.1623,-27.0866 104.2727,-54.274 156.1923,-81.8239 124.5154,-66.0724 247.9738,-134.2717 368.2594,-207.8122 67.1996,-41.0678 133.3927,-83.8011 198.1576,-128.6164 61.1122,-42.2954 120.9521,-86.444 179.1194,-132.7109 43.0022,-34.1929 85.0998,-69.5287 126.1164,-106.0813 10.1417,-9.198 18.7934,-20.371 23.6108,-33.284 4.9554,-13.0288 5.6509,-27.5666 2.2671,-41.0682 -3.2128,-13.2375 -9.9054,-25.3918 -18.0359,-36.2275 -5.6164,-7.5005 -11.8072,-14.6849 -19.3016,-20.3766 -10.6726,-8.2452 -23.2826,-13.7147 -36.3182,-16.971 -14.8127,-3.7784 -30.1073,-5.0897 -45.322,-6.0343 -15.0448,-0.9007 -30.1087,-1.4249 -45.1599,-2.2009 -21.129,-1.0097 -42.2582,-2.0144 -63.3844,-3.0824 -0.888,-0.05 -2.064,-0.1077 -3.0626,-0.1607 -38.0108,-1.9426 -76.0871,-4.1845 -114.0682,-7.233 -29.5723,-2.339 -59.1066,-5.1351 -88.6192,-8.1298 -1.3734,-0.1382 -2.9844,-0.3055 -4.4492,-0.4549 -56.2561,-5.799 -112.4421,-12.2523 -168.6183,-18.7738 -24.2091,-2.8122 -48.4141,-5.6604 -72.618,-8.5174 -27.4523,-3.25 -54.9673,-6.5203 -82.4589,-9.7886 -63.4465,-7.5721 -126.9486,-15.1596 -190.4236,-22.7574 -1.6511,-0.1976 -3.3023,-0.3951 -4.9535,-0.5926 -0.2465,-0.034 -1.1522,-0.1438 -1.6523,-0.2071 -0.7399,-0.09 -1.7861,-0.2253 -2.6435,-0.3328 -21.2035,-2.7086 -42.2713,-6.4041 -63.2159,-10.6594 -0.3741,-0.075 -1.1754,-0.2453 -1.713,-0.3567 -12.9131,-2.6853 -25.788,-5.5773 -38.5331,-8.9792 -0.057,-0.021 -1.1056,-0.3001 -1.5315,-0.4171 -6.6928,-1.7779 -13.3233,-3.7836 -19.8683,-6.0468 -14.3716,-4.8919 -28.9471,-9.1665 -43.6001,-13.1285 -18.0061,-4.7732 -36.1252,-9.2396 -54.5217,-12.2424 -15.6147,-2.5168 -31.0623,-5.9528 -46.4832,-9.4423 -3.425,-0.7903 -6.8472,-1.5924 -10.2667,-2.4065 -0.3461,-0.087 -1.1673,-0.281 -1.6955,-0.4088 -1.0922,-0.2615 -2.4629,-0.5939 -3.3845,-0.8119 -15.587,-3.7446 -31.0811,-7.8639 -46.5139,-12.1977 -34.7409,-9.4823 -69.6321,-18.4079 -104.6046,-26.9933 -18.7348,-4.5755 -37.5359,-8.881 -56.2161,-13.6793 -48.6675,-12.4079 -96.8267,-26.8067 -144.3099,-43.173 -5.3565,-1.8489 -10.7045,-3.7221 -16.0469,-5.611 -0.251,-0.086 -1.1301,-0.4034 -1.6228,-0.5785 -38.0217,-13.5377 -75.604,-28.3023 -112.719,-44.1559 -0.2979,-0.1319 -1.1031,-0.4741 -1.5954,-0.6867 -19.5092,-8.3521 -38.8894,-17.0044 -58.1507,-25.9129 -0.3389,-0.1535 -1.0892,-0.5055 -1.5855,-0.7351 -18.032,-8.3549 -35.9256,-17.001 -53.8789,-25.5227 -88.6127,-42.2444 -177.0756,-84.8738 -267.1327,-123.9845 -91.8828,-39.9151 -185.5124,-76.1937 -281.7057,-104.3791 -19.4712,-5.693 -39.025,-11.1154 -58.7025,-16.0511 -26.2064,-6.2361 -52.2126,-13.3211 -78.5777,-18.8811 -33.4753,-7.1166 -67.5964,-12.0406 -101.8956,-11.4991 z m -1.7636,139.2383 c 6.5262,0.03 12.9785,1.1551 19.4224,2.0669 0.5027,0.076 1.375,0.214 1.6596,0.2534 17.5682,2.7501 35.0497,6.0509 52.6699,8.4668 0.1735,0.022 1.185,0.1723 1.6835,0.2441 30.1819,4.3672 60.0512,10.699 89.6232,18.1114 0.2426,0.058 1.1626,0.2956 1.6661,0.4228 9.7719,2.469 19.5122,5.0622 29.2225,7.7627 0.3561,0.096 1.1564,0.3234 1.6826,0.4698 17.4053,4.8653 34.7129,10.0769 51.9346,15.5556 0.3497,0.1089 1.1436,0.3659 1.6634,0.5315 50.2367,16.0701 99.75,34.3387 148.7019,53.9604 8.0676,3.2374 16.12,6.5126 24.1582,9.8225 0.6245,0.2538 1.5406,0.6364 2.2771,0.9397 54.2834,22.4398 107.9155,46.4475 160.8973,71.8057 17.3819,8.2994 34.6481,16.8374 51.9303,25.3416 21.3894,10.4946 42.8377,20.8705 64.3875,31.0322 -20.182,0.1172 -40.3511,1.2994 -60.4361,3.2511 -35.6008,3.5086 -70.9511,9.44 -105.8162,17.4304 -32.8036,7.5767 -65.2122,16.9842 -96.7544,28.7827 -13.7344,5.1397 -27.2726,10.8008 -40.5792,16.9638 -53.8387,24.2139 -110.1673,42.2479 -166.607,59.2834 -56.2894,17.0122 -112.9108,33.1043 -168.2113,53.1889 -8.14,3.0084 -16.4392,5.5579 -24.7037,8.1965 -7.6676,2.4007 -15.362,4.7149 -23.0777,6.9559 -0.2312,0.07 -1.1527,0.3316 -1.65,0.4754 -18.1896,5.2472 -36.5109,10.034 -54.9262,14.4231 -0.2534,0.056 -1.168,0.2743 -1.6759,0.3928 -1.3411,0.3157 -2.6822,0.6313 -4.0233,0.947 -0.2731,0.065 -1.3637,0.3182 -1.6776,0.3875 -2.3386,0.5329 -4.6772,1.0659 -7.0157,1.5988 -0.1828,0.044 -1.1695,0.2598 -1.6636,0.3701 -8.8116,1.9715 -17.6468,3.8358 -26.4986,5.6182 -0.1774,0.038 -1.1749,0.2326 -1.6701,0.3313 -1.7975,0.355 -3.5949,0.7101 -5.3924,1.0652 -0.095,0.013 -1.1281,0.2151 -1.5682,0.2977 -23.0182,4.4457 -46.1688,8.2065 -69.4122,11.2648 -0.1007,0.016 -1.1396,0.1465 -1.5846,0.2046 -0.9084,0.1176 -1.8174,0.2347 -2.726,0.352 -0.2566,0.027 -1.1907,0.1475 -1.7081,0.2105 -41.4919,5.1724 -83.3194,8.0591 -125.1457,7.4128 -22.9301,-0.3812 -45.8509,-1.8424 -68.6001,-4.8759 -1.4059,-0.185 -2.8096,-0.3856 -4.214,-0.5813 -0.061,-0.01 -1.1336,-0.1657 -1.5708,-0.2288 -1.3371,-0.1925 -2.6717,-0.4013 -4.0074,-0.6033 -0.061,-0.015 -1.1314,-0.1805 -1.5675,-0.2513 -2.255,-0.3555 -4.5058,-0.7359 -6.7547,-1.1276 -0.067,-0.017 -1.1282,-0.2027 -1.564,-0.2823 -21.8049,-3.9032 -43.3645,-9.5172 -63.9478,-17.7679 -27.7317,-10.7683 -56.4243,-18.8786 -85.3748,-25.6297 -40.5921,-9.406 -81.7767,-16.0789 -123.1203,-21.1568 -50.5848,-6.1692 -101.4555,-9.87 -152.3781,-11.6692 -48.3381,-1.6868 -96.7394,-1.6263 -145.0697,0.2927 -37.2025,1.5015 -74.3702,4.0793 -111.3852,8.1271 -39.2071,4.309 -78.2861,10.1521 -116.7958,18.7514 -9.7164,2.1312 -19.3449,4.6329 -29.0198,6.94 -42.5737,10.0678 -85.9303,17.3603 -129.67776,19.4079 -1.93775,0.086 -4.3784,0.1815 -5.99327,0.246 -1.52702,0.054 -3.05441,0.096 -4.5817,0.1412 -0.1878,7e-4 -1.1976,0.028 -1.70379,0.039 -1.40129,0.036 -2.80292,0.057 -4.20441,0.084 -0.0816,0 -1.14728,0.014 -1.59246,0.02 -13.92478,0.1642 -27.85855,-0.2356 -41.74543,-1.2859 0.0172,0 -1.1342,-0.09 -1.56187,-0.1227 -12.47143,-0.978 -24.90039,-2.4928 -37.24282,-4.5316 0.0509,0 -1.11761,-0.1907 -1.53536,-0.2633 -34.84978,-5.8662 -68.88017,-16.2775 -101.2927,-30.3187 -17.14641,-7.4031 -33.8304,-15.8431 -50.13264,-24.9478 -4.82721,-2.6735 -9.64501,-5.3696 -14.46313,-8.0561 24.34657,-21.6583 48.50857,-43.5227 72.64705,-65.4126 38.98268,-35.3757 77.82735,-70.9041 116.46062,-106.6612 19.34206,-17.9325 38.67983,-35.8738 57.6433,-54.2077 4.96559,-4.7954 9.88604,-9.649 14.40814,-14.871 9.3441,-10.455 18.6882,-20.91 28.0323,-31.3651 7.20114,2.3283 14.43473,4.5615 21.59103,7.025 13.3109,4.7556 26.3325,10.2748 39.2961,15.8969 17.3011,7.551 34.3783,15.6117 51.2164,24.145 29.5837,14.7317 59.9999,27.9956 91.6246,37.7165 29.1773,9.0244 59.2285,15.009 89.4921,18.9612 34.0181,4.5053 68.279,6.8126 102.5278,8.6949 32.8831,1.7363 65.8923,2.5606 98.7617,0.1035 32.7343,-2.3711 65.1418,-7.8332 97.385,-13.7942 1.5344,-0.2779 3.0721,-0.5369 4.6092,-0.7996 0.1877,-0.026 1.1821,-0.1943 1.6822,-0.2755 22.7833,-3.7481 45.6556,-6.9296 68.5312,-10.0569 66.0201,-9.4882 130.5264,-27.4478 193.5364,-49.0314 67.2154,-23.0298 132.8188,-50.401 198.5375,-77.3218 21.2853,-8.7067 42.5938,-17.3604 64.0271,-25.6972 0.4527,-0.1789 1.2436,-0.4824 1.8258,-0.709 3.2826,-1.2772 6.5716,-2.5379 9.8598,-3.8007 0.3555,-0.1314 1.1224,-0.4267 1.6354,-0.6208 28.8225,-10.9792 57.9221,-21.3259 87.6204,-29.6978 20.9407,-5.8623 42.2211,-10.7366 63.846,-13.2323 8.3794,-0.9544 16.8087,-1.5118 25.2439,-1.5292 z m 942.9492,353.7695 c 1.77,-0.1096 3.4213,0.6235 5.1264,0.9705 1.1662,0.293 2.3324,0.5861 3.4986,0.8791 0.3528,0.094 1.1635,0.2968 1.6916,0.4324 13.6391,3.465 27.2394,7.0803 40.8494,10.6575 6.043,1.6025 12.3146,3.2581 18.3714,4.863 60.6519,16.114 121.2483,32.4362 181.813,48.8747 29.3746,8.012 58.7587,15.9917 88.0693,24.2352 9.8504,2.8445 19.6723,5.7986 29.6253,8.2711 13.7151,3.474 27.5156,6.6504 41.4496,9.1196 6.632,1.1388 13.2858,2.1535 19.898,3.4059 0.5514,0.1074 1.4416,0.2721 2.1229,0.4015 12.7772,2.3973 25.4877,5.138 38.1564,8.0516 0.5449,0.1302 1.4285,0.3339 2.1033,0.4922 1.657,0.3867 3.3139,0.7734 4.9709,1.1602 0.2202,0.049 1.1664,0.278 1.6668,0.3965 17.2594,4.1059 34.4382,8.5518 51.55,13.2363 16.069,4.4043 32.2337,9.1067 48.2417,13.9603 13.5599,4.2449 27.4927,7.1279 41.3985,9.9746 30.7511,6.1267 61.7045,11.1799 92.694,15.9333 40.5085,6.181 81.1375,11.5555 121.8374,16.3109 48.7105,5.8123 97.4204,11.629 146.1155,17.5689 12.4313,1.5319 24.9834,3.0414 37.4504,4.6529 11.7803,1.5659 23.6244,2.5685 35.4559,3.6535 26.7521,2.3779 53.5381,4.3494 80.3247,6.2922 20.6107,1.5352 41.1866,3.5093 61.7397,5.6768 0.2255,0.029 1.1919,0.1314 1.7033,0.1886 5.7675,0.6214 11.5307,1.2809 17.2928,1.9501 0.2161,0.023 1.1903,0.1431 1.6992,0.2037 5.7048,0.6747 11.8629,1.4467 17.2749,2.1414 1.1981,0.1577 2.3962,0.3155 3.5943,0.4732 0.2641,0.033 1.1889,0.1618 1.7072,0.2317 1.8437,0.2478 3.6851,0.5112 5.5271,0.7703 0.2559,0.041 1.1872,0.1733 1.7031,0.2495 4.2392,0.6131 8.4719,1.2715 12.6993,1.9614 0.1716,0.026 1.181,0.1973 1.6776,0.2796 30.4048,4.9622 61.0408,8.3643 91.7091,11.2048 40.6268,3.6803 81.3639,6.211 122.1445,7.2988 -20.2795,17.7563 -39.8546,36.3068 -60.3773,53.7871 -19.908,16.8792 -40.8463,32.5286 -62.5447,47.0294 -1.3261,0.8915 -2.6592,1.7727 -3.9881,2.6601 -0.1705,0.1062 -1.0013,0.6584 -1.4273,0.9371 -18.9118,12.475 -38.3285,24.1669 -57.1899,36.7191 -8.0662,5.3936 -15.9688,11.0303 -23.6869,16.9109 -35.7991,26.4744 -72.405,51.8439 -109.5084,76.4524 -0.2856,0.1818 -1.0024,0.661 -1.4533,0.9567 -8.8981,5.8898 -17.8251,11.7357 -26.7733,17.5492 -0.3099,0.2044 -1.008,0.6524 -1.4666,0.9501 -35.5604,23.046 -71.5337,45.4508 -107.7717,67.4151 -0.3197,0.197 -1.0277,0.6209 -1.4961,0.9048 -7.611,4.6036 -15.2348,9.184 -22.8652,13.7554 -0.3434,0.1997 -1.0317,0.6142 -1.5071,0.8962 -3.5686,2.127 -7.1372,4.2541 -10.7058,6.3811 -0.3476,0.2098 -1.0328,0.6124 -1.5096,0.896 -40.0131,23.7568 -80.3231,47.0113 -120.8459,69.8872 -0.9575,0.5432 -2.1491,1.2108 -3.1966,1.8019 -88.2373,49.7349 -177.4482,97.7233 -267.1208,144.8146 -48.4967,25.4626 -97.1348,50.6551 -145.8525,75.6921 -90.5745,46.544 -181.5476,92.5774 -272.2801,138.912 -1.787,0.9242 -3.5538,1.9559 -5.5521,2.3493 -6.8116,1.7671 -13.8382,2.4791 -20.824,3.1717 -5.6171,0.5176 -11.7061,0.9172 -17.0531,1.1772 -0.9758,0.046 -1.9516,0.092 -2.9274,0.1379 0.01,0 -1.1379,0.045 -1.5678,0.063 -7.4052,0.3078 -14.8152,0.4797 -22.2252,0.6227 -0.6701,0.01 -1.6461,0.029 -2.4336,0.043 -0.2485,0.01 -1.1408,0.016 -1.6367,0.023 -1.2061,0.011 -2.6665,0.032 -3.9704,0.047 -26.275,0.3142 -52.5569,-0.086 -78.828,0.554 -9.1238,0.2238 -18.2299,0.847 -27.3341,1.4551 -114.3068,7.4368 -228.705,14.4668 -343.0123,22.3563 -64.9543,4.5046 -129.8888,9.302 -194.7812,14.6277 -56.8285,4.6781 -113.6321,9.68 -170.3723,15.3386 -91.8856,9.1983 -183.601,20.0025 -275.2487,31.3042 -109.1304,13.4601 -218.1747,27.6207 -327.3427,40.7802 -20.5631,2.4882 -41.1332,4.9158 -61.706,7.3226 -0.8828,0.1062 -2.0531,0.2376 -3.0463,0.3534 -20.9458,2.4304 -41.8962,4.8212 -62.8541,7.1446 -4.1474,0.4534 -8.4821,0.934 -12.7015,1.3978 -2.6803,0.2951 -5.5968,0.6074 -8.373,0.9095 -8.7827,0.9587 -17.5682,1.8903 -26.3532,2.8275 -1.1992,0.1285 -2.6521,0.2788 -3.9489,0.4156 -16.151,1.6906 -32.3017,3.3883 -48.4648,4.9589 -33.1107,3.1338 -66.3914,4.2893 -99.643,3.9634 -0.2615,-9e-4 -1.1997,-0.015 -1.7217,-0.02 -4.3314,-0.048 -8.6624,-0.1249 -12.9931,-0.218 -0.2864,-0.011 -1.1999,-0.03 -1.7272,-0.044 -7.0492,-0.1681 -14.0965,-0.4116 -21.1419,-0.6996 -0.253,-0.015 -1.1985,-0.053 -1.7182,-0.078 -11.1916,-0.4765 -22.3756,-1.122 -33.5514,-1.8835 -0.335,-0.02 -1.1976,-0.085 -1.7349,-0.1222 -58.5591,-4.1132 -116.8136,-11.8483 -174.6926,-21.5528 -17.5804,-2.9464 -35.1271,-6.0912 -52.6467,-9.3797 -0.3935,-0.072 -1.1798,-0.2229 -1.7237,-0.325 -41.4325,-7.8054 -82.6956,-16.4834 -123.8583,-25.5988 -0.3652,-0.085 -1.1718,-0.2623 -1.7059,-0.3827 -84.5154,-18.7804 -168.58066,-39.4999 -252.80545,-59.5227 -80.47956,-19.1446 -161.11715,-37.7448 -242.36878,-53.3506 -61.53604,-11.7899 -123.43339,-21.8787 -185.72644,-28.725 -66.51032,-7.289 -133.53817,-10.88 -200.43193,-8.1032 -11.3308,0.4112 -22.69652,0.7687 -34.01624,-0.082 -7.98477,-0.6198 -15.97901,-1.9351 -23.4942,-4.7848 -9.17003,-3.3793 -17.46986,-8.7054 -25.32275,-14.4462 -12.42425,-9.2367 -23.88838,-19.6786 -35.17777,-30.2495 -14.66883,-13.8488 -28.97155,-28.079 -43.22338,-42.3546 -11.30255,-11.4268 -22.420258,-23.0349 -33.447888,-34.7267 -0.335474,-0.3519 -0.913885,-0.9716 -1.342438,-1.4261 -9.64705,-10.2633 -19.221508,-20.5948 -28.7435,-30.9743 -0.477151,-0.5269 -1.169933,-1.2793 -1.729854,-1.8927 -33.001664,-36.0556 -65.3968,-72.6634 -97.375821,-109.6281 -6.050248,-6.9984 -12.079372,-14.015 -18.101356,-21.0378 -0.18857,-0.2159 -0.757023,-0.8888 -1.089844,-1.2773 -27.614963,-32.3763 -54.996879,-64.9635 -81.402899,-98.3377 -10.3126,-13.1062 -20.56838,-26.276 -30.03158,-40.015 -1.54323,-2.2857 -3.03508,-4.6057 -4.4874,-6.9501 10.45911,-4.6659 21.20515,-8.663 32.03653,-12.3719 7.73183,-2.6399 15.55816,-4.9885 23.38103,-7.3394 18.6442,-5.878 36.790852,-13.2011 54.807198,-20.7567 29.729248,-12.5425 58.9858647,-26.1719 88.068215,-40.1394 43.680558,-21.0546 86.879667,-43.1005 129.699277,-65.8523 41.32065,-21.9786 82.29639,-44.6195 122.64636,-68.3376 25.84681,-15.2202 51.4715,-30.8514 76.30334,-47.6881 10.18905,-6.9271 20.16819,-14.1692 29.78888,-21.8688 14.39625,-11.0976 29.30362,-21.5107 44.27214,-31.8162 16.2215,-11.123 32.6242,-21.9826 49.22555,-32.5307 0.53943,-0.3358 1.3542,-0.8528 1.99926,-1.258 15.86301,-9.9302 31.54466,-20.1493 47.01892,-30.6753 8.88103,-6.0292 17.70143,-12.1473 26.58338,-18.1742 4.74623,-2.6152 9.44599,-5.322 13.98568,-8.2852 7.12574,-4.6025 13.95154,-9.6468 20.73503,-14.7343 1.89744,2.2357 3.58838,4.6633 5.78963,6.6205 15.96989,15.3532 35.11321,26.9418 54.84067,36.7966 20.60546,10.2645 42.04225,18.746 63.6505,26.6379 18.37164,6.6566 36.89674,12.8835 55.48214,18.9143 23.96591,7.7022 48.27939,14.628 73.19908,18.4589 28.32495,4.4223 57.05863,5.0406 85.67195,5.271 17.7708,0.1469 35.54818,0.058 53.30626,-0.6826 31.1619,-1.1993 62.2806,-3.4862 93.2927,-6.7566 21.8424,-2.3227 43.6514,-5.1472 65.2221,-9.3367 24.3628,-4.6119 48.7161,-9.2719 73.1407,-13.5483 0.3358,-0.054 1.1831,-0.2042 1.715,-0.2952 22.0059,-3.8285 44.1085,-7.1523 66.3306,-9.4481 9.8307,-1.0342 19.6745,-1.9422 29.5247,-2.7684 0.4678,-0.041 1.3698,-0.1166 1.8634,-0.155 10.2435,-0.8539 20.4943,-1.6157 30.744,-2.3899 0.2852,-0.023 1.1972,-0.086 1.7232,-0.1241 20.7109,-1.4651 41.4135,-3.0667 62.1425,-4.2616 23.7846,-1.3662 47.597,-2.2388 71.4175,-2.6339 0.1669,-0.01 1.1385,-0.017 1.6172,-0.023 38.6665,-0.5806 77.8739,0.1756 116.1604,2.3047 3.2199,0.1881 6.4399,0.3763 9.6599,0.5644 0.096,0 1.1461,0.074 1.5929,0.1021 7.5063,0.4728 15.0097,0.9904 22.5087,1.5679 0.3347,0.024 1.1969,0.094 1.7338,0.136 15.999,1.2775 31.9861,2.7348 47.9344,4.5418 6.6385,0.8421 13.174,2.3305 19.7079,3.748 17.4323,3.9229 34.7286,8.4233 51.9637,13.1308 0.323,0.086 1.1577,0.3182 1.6769,0.4601 18.1153,4.9479 36.1373,10.2312 54.0971,15.7151 43.3313,13.101 87.5384,23.3641 132.2777,30.3037 49.4745,7.6904 99.604,11.1857 149.6674,10.3364 58.6448,-0.9439 117.1341,-7.8744 174.5609,-19.7056 44.3265,-9.0988 88.0332,-21.092 131.0049,-35.2452 18.8479,-6.1479 37.7794,-12.0356 56.7171,-17.8997 0.781,-0.2459 1.8478,-0.5692 2.7386,-0.8449 58.1777,-17.9235 116.5665,-35.2246 174.1502,-55.0081 41.1582,-14.1308 81.8835,-29.5944 121.6712,-47.2411 7.6244,-3.3343 15.2831,-6.5899 22.9751,-9.7652 0.2826,-0.1117 1.1111,-0.4545 1.6032,-0.6549 34.5088,-14.1387 69.8632,-26.5879 106.3637,-34.617 23.0955,-5.0969 46.6187,-8.2766 70.2483,-9.3525 11.7049,-0.5461 23.4303,-0.6147 35.1422,-0.2624 0.3619,0.014 1.2003,0.035 1.7446,0.052 33.6796,1.0023 67.476,0.3931 100.967,-3.545 27.3267,-3.1887 54.3798,-8.5873 80.9106,-15.8518 11.3774,-3.0688 22.6419,-6.5357 33.8742,-10.0937 11.9387,-3.6146 24.1841,-6.2781 36.5836,-7.6825 2.9526,-0.3118 5.9184,-0.5297 8.8888,-0.5271 z M 395.78516,5253.0742 c 29.96688,4.2411 60.02068,7.8617 90.12433,10.9831 14.33676,1.4965 28.6941,2.785 43.05459,4.0276 0.82838,0.076 1.65676,0.1517 2.48514,0.2276 0.26745,0.029 1.19441,0.1154 1.71556,0.1665 9.93945,0.9399 19.97877,2.0464 29.82155,3.2065 26.3972,3.1486 52.70339,7.0212 78.93945,11.3008 0.60725,0.1037 1.49005,0.245 2.16909,0.3569 1.83687,0.3036 3.67373,0.6072 5.5106,0.9107 0.28496,0.052 1.14624,0.1946 1.65234,0.2813 2.32422,0.3938 4.64844,0.7877 6.97266,1.1816 0.62673,0.1043 1.57728,0.2705 2.32824,0.3985 49.71746,8.5388 99.19133,18.4338 148.55002,28.8315 66.5038,14.0385 132.80381,29.0162 199.13987,43.8207 75.3193,16.8121 150.6858,33.4605 226.4079,48.3774 52.25,10.2735 104.6769,19.709 157.365,27.4571 46.4195,6.808 93.0606,12.294 139.8914,15.2837 21.2119,1.3487 42.4613,2.0839 63.7153,2.2333 98.6837,1.1219 197.3882,-3.1143 295.7193,-11.3664 75.3447,-6.3111 150.4746,-15.0227 225.3701,-25.3484 51.9341,-7.1487 103.7548,-15.0977 155.5174,-23.3909 44.2706,-7.0678 88.4959,-14.4204 132.7882,-21.352 10.5068,-1.6512 21.0218,-3.2463 31.5413,-4.8156 0.3635,-0.048 1.1881,-0.1735 1.7282,-0.2513 25.6215,-3.7633 51.2873,-7.2981 77.066,-9.8073 12.918,-1.2807 25.8816,-2.0052 38.8251,-2.967 54.7237,-3.9413 109.3722,-8.8417 164.0139,-13.7706 27.581,-2.4938 55.1076,-4.989 82.6988,-7.4349 6.3204,-0.5638 12.6488,-1.1127 19.0132,-1.6702 1.4831,-0.1301 2.8496,-0.2496 4.2781,-0.3707 31.3588,-2.6794 62.7269,-5.2908 94.1385,-7.2755 16.1965,-0.9831 32.3984,-1.8892 48.5783,-3.126 27.9423,-2.1126 55.8547,-4.662 83.6951,-7.8541 10.8142,-1.25 21.606,-2.6878 32.3731,-4.2926 17.3554,-2.3887 34.7795,-4.2436 52.2125,-5.9618 2.9545,-0.281 5.909,-0.562 8.8635,-0.843 0.3262,-0.034 1.1956,-0.1098 1.7301,-0.1598 7.6471,-0.7041 15.2963,-1.3867 22.9496,-2.0199 -23.3184,12.1229 -47.0187,23.505 -70.998,34.2598 -0.3031,0.1395 -1.0963,0.4897 -1.5872,0.71 -2.9084,1.3037 -5.825,2.5892 -8.741,3.8759 -0.3214,0.1444 -1.0998,0.4817 -1.5963,0.7 -24.9362,10.9393 -50.1635,21.2082 -75.5833,30.968 -0.3554,0.1319 -1.1219,0.4279 -1.6347,0.6226 -3.5962,1.3802 -7.2007,2.7386 -10.8048,4.0981 -0.3739,0.1364 -1.1247,0.4204 -1.6428,0.6133 -1.5325,0.5736 -3.065,1.1471 -4.5974,1.7207 -0.3173,0.1208 -1.1259,0.4173 -1.6314,0.6054 -20.6973,7.6902 -41.5241,15.028 -62.4311,22.127 -0.3737,0.13 -1.1372,0.3854 -1.6601,0.5634 -18.2515,6.1654 -36.5687,12.1367 -54.9376,17.9444 -0.3506,0.1059 -1.146,0.3585 -1.6669,0.5206 -3.0235,0.9761 -6.0848,1.8564 -9.0626,2.9613 -10.9839,4.7185 -22.2729,8.6758 -33.5279,12.6885 -25.7209,9.1004 -51.6109,17.7126 -77.5238,26.2476 -0.8455,0.2735 -1.9642,0.6431 -2.9147,0.9535 -45.9236,15.0372 -91.9863,29.6493 -138.1744,43.8544 -2.6415,0.8114 -5.2831,1.6228 -7.9246,2.4343 -0.3877,0.1211 -1.1485,0.3499 -1.6791,0.5123 -25.0791,7.6372 -50.1868,15.1878 -75.4132,22.3258 -9.3104,2.6107 -18.6265,5.2089 -28.0132,7.533 -0.1706,0.037 -1.1636,0.2825 -1.6532,0.4002 -8.6531,2.0834 -17.3658,3.9078 -26.0539,5.8379 -3.222,0.707 -6.6217,1.4369 -9.7343,2.1173 -5.8308,1.2566 -11.6632,2.506 -17.498,3.7442 -0.4176,0.091 -1.2025,0.2536 -1.7639,0.372 -35.3318,7.4456 -70.7651,14.4107 -106.2967,20.837 -0.386,0.066 -1.182,0.2112 -1.7249,0.3075 -16.5619,2.9879 -33.1474,5.8408 -49.7516,8.5831 -0.3463,0.06 -1.185,0.1936 -1.72,0.2817 -19.4953,3.2074 -39.0225,6.2179 -58.573,9.0698 -0.3143,0.048 -1.1884,0.1707 -1.7174,0.2474 -36.1107,5.2132 -72.3121,9.8042 -108.5912,13.6804 -0.4093,0.04 -1.1941,0.1257 -1.7471,0.1832 -64.2619,6.8222 -128.7674,11.4203 -193.3617,13.4377 -14.8778,0.4595 -29.7596,0.7887 -44.6432,0.9865 -0.3282,6e-4 -1.2005,0.013 -1.7373,0.018 -18.5626,0.2234 -37.1277,0.2243 -55.6904,0.01 -0.5634,0 -1.4669,-0.02 -2.1607,-0.028 -16.7646,-0.2122 -33.5267,-0.6099 -50.2827,-1.1887 -0.3701,-0.018 -1.1999,-0.044 -1.746,-0.065 -1.9086,-0.068 -4.1334,-0.1516 -5.8461,-0.2103 -7.5333,-0.29 -15.065,-0.6199 -22.5953,-0.9785 -0.3612,-0.015 -1.1993,-0.06 -1.7431,-0.086 -8.6848,-0.4075 -17.3634,-0.9299 -26.0444,-1.4042 -5.2904,-0.1521 -10.5856,-0.078 -15.878,-0.1382 -35.2498,-0.1705 -70.4988,-0.4861 -105.7467,-0.8931 -1.206,-0.012 -2.6665,-0.034 -3.9703,-0.049 -34.677,-0.4196 -69.3523,-0.9684 -104.0258,-1.6189 -1.9978,-0.036 -4.1992,-0.082 -6.2753,-0.1215 -35.9688,-0.7047 -71.8354,-1.5364 -107.7648,-2.5879 -2.149,-0.061 -4.6558,-0.1368 -6.7528,-0.2008 -5.8171,-0.1855 -11.6341,-0.3711 -17.4512,-0.5566 -1.4138,-0.045 -3.065,-0.1029 -4.57,-0.1529 -17.3971,-0.5971 -34.7957,-1.2275 -52.1737,-2.2505 -4.0017,-0.2022 -7.9831,-0.6593 -11.9394,-1.285 -11.7868,-1.6741 -23.5595,-3.447 -35.3188,-5.3038 -0.3974,-0.067 -1.1856,-0.1899 -1.7326,-0.2782 -1.4895,-0.238 -2.9791,-0.476 -4.4686,-0.714 -0.3623,-0.056 -1.1852,-0.1927 -1.7239,-0.2797 -7.6869,-1.2457 -15.3661,-2.5382 -23.0398,-3.8629 -0.362,-0.067 -1.1827,-0.2072 -1.7204,-0.3022 -45.0421,-7.8444 -89.8297,-17.1861 -134.1819,-28.2954 -0.3193,-0.084 -1.164,-0.2944 -1.6847,-0.427 -11.1744,-2.8093 -22.3187,-5.7376 -33.4345,-8.7703 -0.3229,-0.086 -1.1577,-0.3182 -1.6768,-0.4602 -50.44651,-13.8306 -100.22372,-30.0901 -149.13958,-48.6179 -0.24897,-0.1 -1.12111,-0.4278 -1.60981,-0.6154 -58.64734,-22.2461 -116.01644,-47.7499 -172.41532,-75.1711 -18.37307,-8.92 -36.64463,-18.0479 -54.84792,-27.3092 -0.34603,-0.1733 -1.06945,-0.5459 -1.55994,-0.7955 -45.55339,-23.2207 -90.64825,-47.3263 -135.62756,-71.6362 -1.18132,-0.6442 -2.57936,-1.397 -3.844,-2.083 -7.18124,-3.9107 -14.40267,-7.7496 -21.5349,-11.749 -3.51447,-2.0117 -7.00147,-4.0708 -10.4668,-6.166 -0.15005,-0.088 -1.02297,-0.6224 -1.45342,-0.8834 -14.98112,-9.1819 -29.63793,-18.8869 -44.07393,-28.9018 -10.32057,-7.173 -20.4831,-14.5738 -30.42818,-22.2594 -2.49859,-1.9073 -4.99083,-3.8228 -7.48588,-5.7347 1.16537,0.1706 2.33073,0.3411 3.4961,0.5117 z" /></g></g></g></svg>
