<svg xmlns="http://www.w3.org/2000/svg" xml:space="preserve" width="154.6" height="154.6" viewBox="0 0 154.6 154.6"><path d="M29.2 4.2H125c13.7 0 24.7 11 24.7 24.7v97c0 13.6-11 24.6-24.7 24.6H29c-13.6 0-24.6-11-24.6-24.7V29c0-13.6 11-24.7 24.7-24.7" style="fill:#fff;stroke-width:.943428"/><path d="M120.8 464.4V570h105.7V464.3h-52.9Zm122.1 0v14H257v-14h-7zm14.1 14V495h16.5v-16.4h-8.2zm16.5 16.5V509h14v-14h-7zm14 0H304v-16.4h-16.4v8.2zm16.5-16.4h14.1v-14.1h-14v7zM287.6 509v16.5H318V509H303zm0 16.5h-14.1V509H257v16.5h-14v14h30.5v30.6H257v-14h-14v30.5h14v12.8h16.5v-12.8H304V570h-16.4v-22.3zM304 570h14.1v-14h-14v7zm0 16.5v12.8h14.1v-12.8h-7zM257 509v-14h-14v14h7zm77.6-44.6V570h105.7V464.3h-52.8zm-199.7 14h77.5V556h-77.5v-38.7zm213.8 0h77.5V556h-77.5v-38.7zM151.3 495v44.7h44.6v-44.7h-22.3Zm213.8 0v44.7h44.7v-44.7h-22.3zM196 586.6v14h30.6v-14h-15.3zm30.6 14v16.5h-14.1v14.1h14.1v16.5h-30.6v14h47v16.5h13.7v-47H243v-30.5h-8.3zm108-14v12.8h14.2v-12.8h-7zm30.6 0v12.8h14.1v-12.8h-7zm30.6 0v12.8h14v-12.8h-7zm30.5 0v12.8h14.1v-12.8h-7zm-305.4 14v61.2h14v-14.1h16.5V617h-16.4v-16.4h-7.1zm30.5 16.5h14.1v14.1h30.5v-14h-14v-16.5h-30.6v8.2zm14.1 30.6v14h16.4v-14h-8.2Zm-44.6 30.5V784h105.7V678.2h-52.9Zm14 14.1h77.6V770h-77.5V731zm108.1 0v16.5h13.7v-16.5H250zm-91.6 16.5v44.6h44.6v-44.6h-22.3Z" style="fill:#000;stroke-width:2.34978" transform="matrix(.37 0 0 .37 -26.6 -153.8)"/><path d="M26.6 0A26.6 26.6 0 0 0 0 26.6v17h4.7v-17c0-12.2 9.7-22 21.9-22h17V0ZM111 0v4.7h17c12.2 0 22 9.7 22 21.9v17h4.6v-17A26.6 26.6 0 0 0 128 0ZM0 111v17a26.6 26.6 0 0 0 26.6 26.6h17v-4.7h-17c-12.2 0-22-9.7-22-21.9v-17zm150 0v17c0 12.2-9.8 22-22 22h-17v4.6h17a26.6 26.6 0 0 0 26.6-26.6v-17z" style="color:#000;fill:#000;stroke-width:.808831;-inkscape-stroke:none"/><text xml:space="preserve" x="108.9" y="134.9" style="font-size:21.1492px;line-height:normal;font-family:Affistory;-inkscape-font-specification:&quot;Affistory, Normal&quot;;font-variant-position:super;text-align:center;text-decoration-color:#000;letter-spacing:0;text-anchor:middle;fill:#fff;stroke:none;stroke-width:4.43287;stroke-dasharray:none"><tspan x="111.9" y="134.9" style="font-style:normal;font-variant:normal;font-weight:400;font-stretch:normal;font-size:21.1492px;font-family:Arial;-inkscape-font-specification:&quot;Arial, Normal&quot;;font-variant-ligatures:normal;font-variant-caps:normal;font-variant-numeric:normal;font-variant-east-asian:normal;fill:#000;stroke-width:4.43287"> </tspan></text><text xml:space="preserve" x="99.4" y="136.5" style="font-style:normal;font-variant:normal;font-weight:400;font-stretch:normal;font-size:24.2419px;line-height:normal;font-family:Arial;-inkscape-font-specification:&quot;Arial, Normal&quot;;font-variant-ligatures:normal;font-variant-position:super;font-variant-caps:normal;font-variant-numeric:normal;font-variant-east-asian:normal;text-align:center;text-decoration-color:#000;letter-spacing:0;text-anchor:middle;fill:#000;stroke:none;stroke-width:5.0811;stroke-dasharray:none"><tspan x="99.4" y="136.5" style="font-style:normal;font-variant:normal;font-weight:400;font-stretch:normal;font-size:24.2419px;font-family:&quot;Arial Black&quot;;-inkscape-font-specification:&quot;Arial Black, Normal&quot;;font-variant-ligatures:normal;font-variant-caps:normal;font-variant-numeric:normal;font-variant-east-asian:normal;stroke-width:5.0811">MAEL</tspan></text><path d="M106.4 74.7c-3.2.7-5.5 3.4-8.6 4.4-2 1-3.7-1.7-5.2.2q-5 4.8-10 9.5-2.6 2.5-5.5 4.7c-1 .8 2.7 2 3.1 3.4 3.8 4 6 9 9.8 13 2.1 2 5 2.3 7.8 3q5.2.5 10.2-1a38 38 0 0 0 17.5-9.7c3.5-3.4 6.5-6.9 9.8-10.6.1-.2.5-.8.4-1.1.6-.4.7-.9-.6-1-2.7-.8-5.6-2.3-8-3.4l-12.1-6c-2.7-1.6-4.8-4-7.7-5.3zm1 9.9c4.8.6 8.7 3.8 13.3 4.6 4 1.1 8.1 1.2 12.1 1.7 0 .2-9 6.7-14 9.3q-7.7 4.5-16.5 4.5c-4 0-8.4-.3-12-2.4-2-1-4.1-4.2-8-8.8 3.6-2.5 7.6-4.7 11-7.7 2 .6 3.7 1.5 5.1 1 3.2 0 6-1.5 9-2.2" style="fill:red;fill-opacity:1;stroke-width:3.35601;-inkscape-stroke:none"/><path d="M99.6 82.2a7 7 0 0 1-3.3.5c1.6 1 3.2.6 5 .2q2.4-.7 4.5-1.5c1.4-.4 2.4-.3 4.5.2l1.5.5q-2.8-2.1-5.3-3.9c-2.3 1.4-5.4 3.4-6.9 4" style="mix-blend-mode:normal;fill:#fff;stroke-width:1.678;-inkscape-stroke:none"/><path d="m119.9 102.9-3 1.5q-1.3.8-2.7 1.2a36 36 0 0 1-17.7 1.7q-3.3-.4-6.5-1.9l1.6 2q.5.7 1.3 1a21 21 0 0 0 4.3 1.3h6.9l1.7-.2a27 27 0 0 0 5.6-1.8 37 37 0 0 0 8.5-4.8" style="mix-blend-mode:normal;fill:#fff;fill-opacity:1;stroke-width:3.356;-inkscape-stroke:none"/><path d="M87.7 99.6h-.3l.1.3.1.1 1 .8.7.4.9.5a24 24 0 0 0 5.8 2.2l2.1.2h7.8l.2-.1a27 27 0 0 0 5.4-1.2l2.8-1 1.2-.5 1.1-.5.3-.2.2-.1v-.3h-2.4l-.9.2h-1.2l-6.3.8h-.7l-1.2.2-.6.1h-1.1l-.7.1h-2.7l-.9-.1H98l-.5-.1-.4-.1-.6-.1h-.2l-1.2-.3-3.4-.8z" style="fill:#fff;fill-opacity:1;stroke-width:1.75812;-inkscape-stroke:none"/><path d="M107 73.8c-4.2 0-7.4 5.7-12 4l-.8-.3-.5.2c-3.7 2.2-5.2 4-8.9 7.6-1.3 1.3-3.6 4-5.9 5.8-1.1.9-2.2 1.5-2.4 2.6.7 1.5 1.4 1.2 2.3 2.3 2.9 3.8 6.8 10.7 10.2 14 5 5 13 4.5 19.5 3 9.6-2 17.5-8.6 23.5-16 2.2-2.4 4.8-5.2 4.7-7 0-1.4-1.9-1.6-5-2.6-8.3-3.7-14.4-6.3-22.4-12.9a6 6 0 0 0-2.3-.7m.6 1.6a88 88 0 0 0 27 14.2c1.6.4.5 1.7.3 2-2.8 4-6.4 7.2-9.8 10.7a33 33 0 0 1-30 9.6c-7.4-1.6-11.7-14-16.2-18.5 4.4-4.6 12.2-12.9 16-14.1 4.7 1.5 7.6-2.3 11.4-4q.8-.2 1.3 0m-25 17.4s-1.4.5-.6 1.6c1.9 2.5 5.1 7 7.2 8.1 10.3 6 24.8 2.1 32.8-3.1 3-1.8 8.4-5 11-7.8.4-.3.5-1.2-.1-1.3-4.2-.3-7.6-.4-11.9-1.4-4.5-1.2-8.5-4-13-4.6-4 1.7-10.4 3-14 1-.7-.2-2-1.1-2.3-1.2-.1 0-.6.5-.5.7s1.3 1 1 1" style="fill:#000;stroke-width:.0713988"/><path d="M108 85.2A23 23 0 0 1 96 87l-2.7-.9c-1.2 1-2 1.4-3.7 2.7.1.8 3 1.5 3.7 1.6 1.5.2 2.9-.4 4.3-.3q2.8-.2 5.4.4c1.8.6 3.8.2 5.5-.3 2.2-.5 4.8-1.6 7.4-2l-1.8-.9c-2.1-1-3.8-1.9-6.2-2" style="fill:#fff;fill-opacity:1;stroke-width:1.75812;-inkscape-stroke:none"/><path d="M100 103.9c-4 0-8.3-1-11-3.3 0 0 2.1 0 5.3.7q6.3 1.7 12.8.5c1.5-.4 4.6-.7 6.4-.7 1.5 0 4.7-.8.9.5a33.7 33.7 0 0 1-14.4 2.3" style="fill:#fff;stroke-width:.0492334"/></svg>